<svg width="320" height="252" viewBox="0 0 320 252" fill="none" xmlns="http://www.w3.org/2000/svg">
<path d="M125.09 80.8694C126.526 78.1183 126.076 74.923 128.544 72.1188C131.012 69.3147 135.629 68.8286 137.199 67.2589C141.427 63.0307 148.088 62.5993 153.472 61.0612C156.914 60.0777 160.408 60.078 163.959 60.0782L164.133 60.0783C165.593 60.0783 167.755 59.9601 169.089 60.5697C170.479 61.205 172.318 61.3015 173.812 61.6072C175.701 61.9935 177.62 62.0441 179.546 62.0441C184.017 62.0441 187.716 64.1089 191.641 66.0713C193.452 66.9769 195.129 67.9051 196.624 69.3066C197.942 70.5419 198.928 72.0275 200.405 73.1018C202.618 74.7107 202.812 79.2764 203.381 81.7158C204.566 86.7936 204.704 92.1133 205.211 97.3058C205.472 99.9876 206.049 102.651 206.207 105.333C206.349 107.749 206.534 110.297 206.876 112.691C207.469 116.841 206.922 118.896 206.996 123.078C207.035 125.214 206.207 129.035 206.207 131.766C206.207 134.496 204.344 146.122 202.28 150.134C201.071 152.486 200.361 157.666 198.06 162.297C195.76 166.928 193.811 170.414 190.276 173.795C188.189 175.791 185.721 177.506 183.832 179.692C182.878 180.798 181.645 182.098 180.447 182.941C178.118 184.581 175.744 186.223 173.457 187.911C170.383 190.179 166.713 190.559 163.082 190.559C160.774 190.559 158.697 189.997 156.461 189.453C153.62 188.762 150.179 188.033 147.601 186.627C144.011 184.669 141.201 182.121 138.045 179.61C134.216 176.564 130.787 172.644 127.67 168.853C126.196 167.061 124.66 165.26 123.438 163.283C122.162 161.217 121.201 158.981 119.957 156.908C119.032 155.366 118.703 153.392 117.978 151.734C117.493 150.626 117.199 149.487 116.886 148.321C116.243 145.934 115.346 143.526 115.029 141.072C114.573 137.535 113.93 133.811 113.063 130.342C112.312 127.336 111.589 124.015 111.589 120.909C111.589 117.728 111.248 114.315 111.889 111.189C112.779 106.853 114.546 102.852 116.558 98.903C117.637 96.7848 118.464 94.7643 119.589 92.7189C121.686 88.9062 123.088 84.707 125.09 80.8694Z" stroke="black" stroke-width="3" stroke-linecap="round" stroke-linejoin="round"/>
<path d="M173.238 105.538C179.654 100.118 185.86 99.497 187.845 99.497C189.831 99.497 194.512 99.6442 196.391 101.06C198.271 102.476 199.285 104.063 199.285 104.063" stroke="black" stroke-width="4" stroke-linecap="round" stroke-linejoin="round"/>
<path d="M152.134 104.555C152.134 104.555 147.119 100.935 144.885 99.6935C142.651 98.4524 137.686 97.2734 134.708 97.4595C131.729 97.6457 127.509 99.9418 125.772 101.928" stroke="black" stroke-width="4" stroke-linecap="round" stroke-linejoin="round"/>
<path d="M128.502 115.858C131.69 112.839 137.344 111.903 141.936 112.923C143.217 113.208 145.963 114.721 146.673 115.858C147.022 116.416 147.649 116.754 148.011 117.332C148.334 117.85 149.016 118.498 149.185 117.824" stroke="black" stroke-width="3" stroke-linecap="round" stroke-linejoin="round"/>
<path d="M173.021 118.315C176.141 115.195 179.339 113.647 183.846 113.647C186.531 113.647 189.565 113.647 192.295 116.324" stroke="black" stroke-width="3" stroke-linecap="round" stroke-linejoin="round"/>
<path d="M137.954 116.113C137.551 115.044 137.29 114.779 137.704 113.527C137.704 113.273 137.731 112.998 138.03 112.944C138.536 112.852 139.11 112.936 139.623 112.936C140.186 112.936 140.758 113.231 141.333 113.231C142.084 113.231 142.656 113.388 143.336 113.79C143.998 114.181 144.152 115.388 143.656 115.973C143.141 116.582 142.912 116.881 142.147 117.082C141.392 117.28 140.764 117.369 139.956 117.369C139.401 117.369 138.197 116.758 137.954 116.113Z" fill="#333333" stroke="black" stroke-width="3" stroke-linecap="round" stroke-linejoin="round"/>
<path d="M186.183 117.106C186.585 116.037 186.847 115.772 186.433 114.52C186.433 114.266 186.405 113.991 186.106 113.937C185.6 113.845 185.026 113.929 184.514 113.929C183.951 113.929 183.379 114.224 182.803 114.224C182.052 114.224 181.481 114.381 180.801 114.783C180.139 115.174 179.985 116.381 180.481 116.966C180.996 117.574 181.224 117.874 181.99 118.075C182.745 118.273 183.372 118.362 184.18 118.362C184.736 118.362 185.94 117.751 186.183 117.106Z" fill="#333333" stroke="black" stroke-width="3" stroke-linecap="round" stroke-linejoin="round"/>
<path d="M133.026 117.121C135.012 117.719 137.991 118.21 139.48 118.21C140.745 118.21 146.168 118.21 146.168 118.21" stroke="black" stroke-width="3" stroke-linecap="round" stroke-linejoin="round"/>
<path d="M175.124 118.333C175.799 118.333 176.474 118.333 177.149 118.333C177.843 118.333 178.452 118.67 179.112 118.817C179.85 118.981 180.624 119.152 181.382 119.192C182.142 119.232 182.9 119.126 183.645 119.287C184.126 119.391 184.516 119.202 184.981 119.192C185.464 119.18 185.942 119.222 186.419 119.13C187.167 118.986 187.864 118.784 188.614 118.639C189.18 118.531 189.591 118.175 190.093 117.937C190.52 117.735 191.793 117.228 191.32 117.228" stroke="black" stroke-width="3" stroke-linecap="round" stroke-linejoin="round"/>
<path d="M157.701 115.388C158.359 119.417 158.136 123.621 157.272 127.596C156.851 129.534 156.442 131.694 155.37 133.397C155.37 133.397 149.161 139.709 148.416 140.454C147.671 141.198 146.904 143.293 146.904 144.344C146.904 145.156 147.401 146.298 148.131 146.703C148.68 147.008 149.293 147.844 149.842 148.149" stroke="black" stroke-width="3" stroke-linecap="round" stroke-linejoin="round"/>
<path d="M155.363 145.081C154.122 145.939 151.515 145.815 152.793 145.176C153.651 144.747 154.466 144.781 155.363 145.081ZM155.363 145.081C156.31 145.396 156.711 146.395 157.701 147.071C158.795 147.817 159.413 148.359 160.707 148.639C161.647 148.842 163.061 148.893 163.806 148.397C164.225 148.118 165.163 147.228 166.195 146.553C166.746 146.193 166.685 146.197 167.281 145.915M167.281 145.915C167.472 145.824 167.687 145.228 168.614 145.571C169.542 145.915 169.267 146.163 169.267 146.163C169.267 146.163 168.928 146.38 168.683 146.43C167.936 146.583 167.436 146.225 167.281 145.915Z" stroke="black" stroke-width="3" stroke-linecap="round" stroke-linejoin="round"/>
<path d="M169.48 133.056C169.814 134.77 169.3 137.521 171.004 138.468C172.709 139.415 175.04 141.817 175.224 142.688C175.591 144.421 175.58 145.838 174.32 147.098C173.256 148.162 171.958 148.884 170.462 148.884" stroke="black" stroke-width="3" stroke-linecap="round" stroke-linejoin="round"/>
<path d="M143.836 159.436C144.882 159.436 145.822 159.76 146.808 160.077C147.76 160.383 148.768 160.403 149.726 160.636C151.518 161.072 153.087 160.663 154.879 160.663C156.367 160.663 157.828 160.172 159.296 160.172C160.837 160.172 162.408 159.927 163.966 159.927C164.746 159.927 165.659 160 166.406 160.234C167.073 160.442 167.996 160.295 168.689 160.295C170.357 160.295 172.072 160.115 173.727 159.92C174.523 159.826 175.312 159.65 176.099 159.552C176.663 159.482 177.256 159.501 177.83 159.429C178.373 159.361 178.783 159.206 179.241 159.075C179.797 158.916 179.913 159.191 179.173 159.191" stroke="black" stroke-width="3" stroke-linecap="round" stroke-linejoin="round"/>
<path d="M144.941 160.063C145.437 160.808 152.388 164.779 154.293 165.23C156.198 165.681 159.195 165.23 161.82 165.23C163.32 165.23 165.295 165.772 167.281 165.772C169.267 165.772 177.782 159.923 178.699 159.567" stroke="black" stroke-width="3" stroke-linecap="round" stroke-linejoin="round"/>
<path d="M145.432 159.191C146.863 159.191 148.294 159.191 149.726 159.191C151.528 159.191 153.051 158.804 154.729 158.182C156.408 157.56 157.956 156.588 158.593 156.588C159.336 156.588 159.468 157.031 159.91 157.473C160.379 157.943 160.579 158.209 161.324 158.209C161.985 158.209 162.721 156.651 163.558 156.836C164.394 157.022 164.822 157.706 165.186 157.868C165.741 158.115 166.423 158.18 167.026 158.209C168.894 158.298 170.702 158.675 172.548 158.939C174.091 159.159 178.769 159.313 177.21 159.313" stroke="black" stroke-width="3" stroke-linecap="round" stroke-linejoin="round"/>
<path d="M110.371 113.408C109.269 112.574 107.648 111.574 106.316 112.61C105.039 113.603 104.81 115.451 104.81 116.935C104.81 118.784 105.041 120.627 105.041 122.445C105.041 124.585 105.932 126.75 106.213 128.855C106.484 130.889 107.158 133.114 108.054 134.957C108.759 136.41 110.434 137.358 111.066 138.78C111.25 139.194 111.789 139.39 112.044 139.823C112.332 140.312 112.814 140.888 113.151 141.393C113.552 141.994 114.123 142.493 114.593 143.015C114.916 143.375 115.376 143.392 115.005 142.835" stroke="black" stroke-width="3" stroke-linecap="round" stroke-linejoin="round"/>
<path d="M207.225 119.201C208.524 117.502 210.116 116.884 212.206 116.884C213.916 116.884 214.401 118.898 214.755 120.243C215.179 121.853 214.302 124.042 213.712 125.534C212.98 127.386 212.369 129.443 211.91 131.378C211.185 134.44 210.043 137.421 209.529 140.505C209.186 142.562 207.225 143.929 204.266 144.673" stroke="black" stroke-width="3" stroke-linecap="round" stroke-linejoin="round"/>
<path d="M111.066 111.091C109.609 109.226 108.683 107.439 108.285 105.054C107.943 103.001 107.438 100.414 107.873 98.3471C108.334 96.1599 107.889 93.86 108.067 91.6404C108.384 87.6681 110.077 83.9708 110.602 80.0293C111.034 76.7895 111.968 73.5321 112.688 70.3362C113.494 66.759 113.717 63.1223 114.773 59.6004C115.632 56.7369 117.2 54.0676 118.493 51.4005C120.1 48.0863 121.828 44.9235 124.144 42.055C126.952 38.5785 129.794 35.5032 133.207 32.5936C134.209 31.7391 135.173 30.8477 136.219 30.0448C136.476 29.8479 137.104 29.1695 137.429 29.1695C137.803 29.1695 137.257 29.9027 137.249 30.2765C137.23 31.1316 137.227 31.9964 137.249 32.851C137.255 33.1106 137.871 35.845 138.291 35.284C139.584 33.5605 140.794 31.7861 142.398 30.3023C144.626 28.2414 146.962 26.4639 149.31 24.5482C150.241 23.7894 152.674 21.2017 152.078 22.244C150.734 24.5959 151.219 28.2608 153.288 29.9933C153.897 30.5029 154.95 31.8888 155.888 31.2291C157.515 30.0864 158.857 28.5477 160.394 27.2901C160.52 27.1872 162.64 25.5868 162.724 25.9642C162.892 26.7194 162.485 27.6252 163.02 28.2941C163.749 29.2059 165.09 30.3313 166.341 30.2122C168.207 30.0344 169.459 26.3059 170.164 24.8957C170.29 24.6439 171.297 22.1744 171.773 22.3985C172.385 22.6865 172.408 24.3439 172.571 24.9215C172.835 25.8513 175.507 33.3798 177.553 31.5895C178.73 30.5595 179.039 28.1382 179.754 26.7494C180.552 25.1999 180.545 25.3963 181.196 26.7237C183.13 30.666 186.21 33.6175 190.284 35.3998C192.418 36.3334 192.773 35.2024 193.077 33.2758C193.192 32.5479 193.785 29.9471 193.785 32.0014C193.785 35.523 198.165 37.9018 200.029 40.6261C201.81 43.2299 203.265 45.6069 204.341 48.6072C205.681 52.3439 209.061 55.8879 210.472 59.6004C211.289 61.7522 211.761 64.2562 212.209 66.5002C212.7 68.953 212.376 71.4966 212.905 73.9277C213.797 78.0334 212.557 81.8507 212.557 85.9379C212.557 88.5715 212.789 91.1427 212.789 93.7902C212.789 97.0706 212.406 100.233 212.081 103.483C211.842 105.872 212.186 109.616 211.465 111.908C211.032 113.281 210.473 114.278 209.975 115.631C209.975 115.631 207.245 119.351 207.245 118.114" stroke="black" stroke-width="3" stroke-linecap="round" stroke-linejoin="round"/>
<path d="M128.501 170.887C130.954 179.113 130.983 188.551 128.275 196.673C126.923 200.73 121.459 212.336 122.811 208.279" stroke="black" stroke-width="3" stroke-linecap="round" stroke-linejoin="round"/>
<path d="M190.686 172.919C189.349 180.196 187.344 186.927 190.37 194.144C191.517 196.879 192.339 200.338 194.028 202.77C194.426 203.343 196.928 207.278 195.97 205.841" stroke="black" stroke-width="3" stroke-linecap="round" stroke-linejoin="round"/>
<path d="M156.952 199.744C157.35 202.31 157.286 205.585 158.984 207.647C159.44 208.2 161.386 209.978 161.829 209.092" stroke="black" stroke-width="3" stroke-linecap="round" stroke-linejoin="round"/>
<path d="M59 229.008C66.2323 227.528 73.2893 225.152 79.8187 221.692C87.5384 217.6 95.8685 214.584 103.708 210.718C107.652 208.773 112.478 207.726 116.218 205.434C118.26 204.182 120.578 204.667 121.795 206.857C122.704 208.493 122.179 210.308 123.624 211.96C125.991 214.665 127.919 216.123 131.256 217.537C133.534 218.502 137.168 220.708 139.565 220.879C142.368 221.079 145.785 221.768 148.416 222.708C152.815 224.279 157.982 223.724 162.574 223.724C168.409 223.724 173.13 220.939 177.861 217.831C184.186 213.674 191.852 210.775 197.505 205.75C198.031 205.283 200.918 206.177 201.637 206.224C204.564 206.42 207.465 207.02 210.376 207.557C218.26 209.011 225.995 210.871 233.814 212.547C239.735 213.816 245.586 215.314 251.494 216.611C253.839 217.126 256.204 217.726 258.471 218.531C259.026 218.728 261 220.273 261 219.66" stroke="black" stroke-width="3" stroke-linecap="round" stroke-linejoin="round"/>
</svg>
