<svg width="320" height="257" viewBox="0 0 320 257" fill="none" xmlns="http://www.w3.org/2000/svg">
<path d="M145.78 33.9613C138.422 34.1408 134.579 40.0082 128.727 43.476C127.583 44.154 126.54 44.1542 125.51 45.1308C124.526 46.0628 123.359 47.2266 122.292 48.0266C120.291 49.5276 118.89 52.4631 117.742 54.6455C115.147 59.5747 111.268 63.9756 110.111 69.6301C109.293 73.6296 108.763 77.5037 107.399 81.4431C107.032 82.5056 105.972 87.8293 105.561 87.4185C104.96 86.8174 105.331 86.0668 104.412 85.5799C103.519 85.1072 102.509 85.2582 101.516 85.2582C99.5795 85.2582 97.5696 86.3019 96.6436 88.154C95.307 90.8271 97.3799 91.6489 98.5282 93.9455C99.6765 96.2421 100.076 111.293 100.076 113.197C100.076 115.101 102.248 117.43 103.584 118.767C104.144 119.327 106.762 119.854 107.399 120.252" stroke="black" stroke-width="3" stroke-linecap="round" stroke-linejoin="round"/>
<path d="M106.003 100.779C106.003 106.822 104.516 114.403 107.514 119.801C109.936 124.16 110.386 129.882 113.058 134.081C116.477 139.453 118.222 145.712 122.614 150.62C124.465 152.69 129.402 156.641 131.403 158.641C133.403 160.642 140.948 165.397 143.821 166.754C146.896 168.206 150.925 167.995 154.261 167.995C156.698 167.995 166.583 167.367 167.81 166.754C169.037 166.141 175.161 162.771 176.186 161.974C177.545 160.917 182.761 155.401 186.229 153.194C189.697 150.987 191.775 146.378 193.584 142.76C194.701 140.525 195.422 138.252 195.422 135.728" stroke="black" stroke-width="3" stroke-linecap="round" stroke-linejoin="round"/>
<path d="M159.432 32.7202C163.219 34.2904 166.874 34.3724 170.417 36.6272C172.098 37.6969 174.561 37.7014 176.37 38.7186C179.343 40.391 182.022 42.7631 185.08 44.2114C188.208 45.6929 189.217 46.9269 189.217 50.3018C189.217 53.1559 189.612 55.6118 190.067 58.3457C190.129 58.7128 190.723 59.7215 190.895 60.6669C191.348 63.1615 192.288 65.5543 192.848 68.0213C193.568 71.1887 194.476 75.0958 194.595 78.3174C194.835 84.7997 199.973 90.5533 199.973 97.0252C199.973 104.756 198.593 112.206 198.318 119.916C198.247 121.899 197.538 124.322 197.169 126.305C196.89 127.803 197.077 129.471 197.077 130.993C197.077 132.47 196.328 133.912 196.25 135.314C196.187 136.439 196.471 137.731 196.227 138.83C196.023 139.747 195.422 140.881 195.422 141.749C195.422 143.064 195.609 144.448 195.101 145.656C194.714 146.574 194.595 149.386 194.595 150.413C194.595 151.754 194.461 153.14 193.859 154.343C192.552 156.957 197.092 149.467 198.525 146.92C198.971 146.126 199.559 144.126 199.559 145.242C199.559 146.483 199.559 147.724 199.559 148.966C199.559 151.435 199.973 153.939 199.973 156.504C199.973 162.588 200.703 169.452 199.352 175.395C197.898 181.794 197.009 188.512 195.744 194.976C194.882 199.383 193.768 204.043 193.768 208.536C193.768 210.57 193.697 212.617 193.768 214.649C193.84 216.736 194.981 218.545 195.422 220.533C196.158 223.843 197.471 227.048 198.226 230.369C198.744 232.648 198.771 235.077 199.352 237.287C200.303 240.899 198.318 244.335 198.318 247.836C198.318 248.302 197.464 251.184 198.341 249.284C199.492 246.79 201.402 244.03 203.282 242.044C204.318 240.951 204.485 240.642 205.948 240.298C208.211 239.765 208.785 239.015 209.511 241.677C210.599 245.667 211.243 249.531 212.062 253.536C212.454 255.454 213.011 253.227 213.211 252.616C213.687 251.159 214.083 249.24 215.095 248.043C217.033 245.753 218.649 243.298 221.278 241.838C222.53 241.142 224.76 244.334 225.621 245.17C226.904 246.416 229.017 247.868 230.608 248.663C233.424 250.071 235.353 252.592 238.583 253.122C240.77 253.481 243.207 254.455 245.386 254.455C247.176 254.455 245.478 253.394 245.478 251.766C245.478 247.333 243.98 242.629 242.375 238.528C241.174 235.458 240.928 231.657 240.928 228.393C240.928 226.629 240.083 224.901 239.71 223.222C239.408 221.865 238.445 220.224 238.445 218.878" stroke="black" stroke-width="3" stroke-linecap="round" stroke-linejoin="round"/>
<path d="M154.054 7.89917C151.897 12.393 151.873 16.8854 150.836 21.5508C150.309 23.9233 150.81 25.7422 152.215 27.5492C153.356 29.0156 154.74 31.0111 156.743 31.4562C157.718 31.6728 160.259 33.8123 160.259 32.3065" stroke="black" stroke-width="3" stroke-linecap="round" stroke-linejoin="round"/>
<path d="M153.699 8.77341C155.544 4.32266 161.883 2 167.528 2C173.172 2 188.642 7.6626 191.517 8.77341C194.392 9.88422 204.782 16.3935 207.604 18.3691C210.426 20.3446 219.681 35.0284 221.898 39.3392C224.115 43.65 230.273 68.1667 231.505 75.5596C232.737 82.9524 230.999 138.709 230.999 152.022C230.999 155.278 230.999 158.534 230.999 161.79C230.999 165.133 230.234 168.386 230.172 171.718C230.112 174.964 230.172 178.216 230.172 181.463C230.172 185.222 230.906 188.898 230.999 192.632C231.164 199.206 235.46 213.219 238.366 219.031" stroke="black" stroke-width="3" stroke-linecap="round" stroke-linejoin="round"/>
<path d="M149.503 9.55396C149.503 15.8598 150.636 20.3862 148.619 26.8359C147.72 29.7089 146.406 32.7766 145.514 33.8915" stroke="black" stroke-width="3" stroke-linecap="round" stroke-linejoin="round"/>
<path d="M148.262 10.3813C146.457 7.99792 144.78 6.05996 141.643 6.24447C139.771 6.35462 136.959 8.70083 135.622 9.96763C133.995 11.5093 132.997 13.8283 131.209 15.1157C128.776 16.8679 126.638 19.0194 124.177 20.7234C121.735 22.4137 114.401 29.6358 109.468 36.4434C100.33 49.0519 89.3439 85.6794 88.5998 89.7721C87.8557 93.8647 85.9375 155.531 85.4002 163.858C84.8629 172.186 77.2449 209.14 75.6377 215.569C74.0305 221.998 74.1349 228.661 73.3854 235.219C73.3385 235.63 72.4862 240.462 73.4773 239.471C75.1251 237.823 77.9335 236.222 79.2 234.322C81.127 231.432 82.163 225.911 86.4165 225.911C90.1227 225.911 91.4875 229.387 93.0354 232.139C95.3899 236.325 98.1566 240.14 100.872 244.09C103.262 247.566 105.517 251.865 108.939 254.432C110.852 255.867 110.727 254.344 111.123 252.525C111.729 249.736 112.173 246.892 112.915 244.136C114.106 239.715 121.525 247.432 121.764 245.883C122.176 243.201 121.736 240.206 121.786 237.494C121.807 236.366 121.966 232.856 122.844 231.978C123.08 231.742 125.246 233.635 126.245 233.265C128.586 232.398 128.65 227.524 128.796 225.474C129.327 218.046 130.451 210.649 130.865 203.204C131.213 196.94 132.129 163.858 132.129 163.858" stroke="black" stroke-width="3" stroke-linecap="round" stroke-linejoin="round"/>
<path d="M186.735 153.93C184.526 159.054 184.253 164.526 184.253 170.04C184.253 174.392 184.865 177.527 186.827 181.233C188.331 184.074 190.094 185.833 192.32 188.059C192.958 188.697 197.553 191.451 197.904 190.748" stroke="black" stroke-width="3" stroke-linecap="round" stroke-linejoin="round"/>
<path d="M148.262 90.2224C150.073 94.9761 149.917 100.51 149.917 105.552C149.917 110.166 149.686 114.083 148.262 118.353" stroke="black" stroke-width="3" stroke-linecap="round" stroke-linejoin="round"/>
<path d="M140.816 120.008C142.806 122.555 145.293 122.545 147.849 123.823C149.349 124.573 150.133 127.368 151.802 127.845C154.607 128.646 155.721 126.416 157.961 125.776C158.204 125.707 160.173 124.459 160.259 124.351C160.704 123.796 162.875 124.145 163.569 124.145" stroke="black" stroke-width="3" stroke-linecap="round" stroke-linejoin="round"/>
<path d="M136.201 135.421C142.954 138.056 150.543 139.558 157.712 139.558C164.882 139.558 167.921 137.239 169.786 136.618C171.65 135.996 172.608 134.924 172.927 134.364" stroke="black" stroke-width="3" stroke-linecap="round" stroke-linejoin="round"/>
<path d="M168.37 81.5603C171.801 80.1712 175.935 78.674 179.654 78.5363C181.781 78.4575 183.996 77.5953 186.136 78.1583C186.957 78.3744 187.934 78.5363 188.782 78.5363C189.206 78.5363 190.938 78.7532 189.79 79.0403" stroke="black" stroke-width="3" stroke-linecap="round" stroke-linejoin="round"/>
<path d="M116.71 79.0402C118.63 78.2909 120.852 78.0322 122.898 78.0322C125.321 78.0322 128.335 78.0704 130.668 78.7882C132.635 79.3936 134.833 79.5957 136.87 80.0482C138.172 80.3376 140.588 81.247 141.406 82.0642" stroke="black" stroke-width="3" stroke-linecap="round" stroke-linejoin="round"/>
<path d="M169.69 95.6017C171.308 94.4251 172.982 93.1006 174.73 92.1297C176.169 91.3304 177.728 90.8399 179.77 90.5617C181.586 90.3143 182.672 90.2239 184.461 90.6188C186.101 90.9806 187.001 91.4655 188.412 92.3121" stroke="black" stroke-width="3" stroke-linecap="round" stroke-linejoin="round"/>
<path d="M174.019 98.37C177.949 97.6032 182.304 98.8895 185.863 97.11" stroke="black" stroke-width="3" stroke-linecap="round" stroke-linejoin="round"/>
<path d="M177.502 97.2397C176.074 95.454 175.767 93.5587 178.534 91.7477C179.556 90.9815 182.94 90.9019 183.284 92.4517C183.688 94.2685 183.887 96.1934 182.094 97.3657C180.973 98.099 178.485 98.4678 177.502 97.2397Z" fill="black" stroke="black" stroke-width="3" stroke-linecap="round" stroke-linejoin="round"/>
<path d="M119.711 90.4334C123.42 87.706 127.725 86.7078 132.115 88.2214C135.842 89.5068 137.998 92.6287 141.131 94.7174" stroke="black" stroke-width="3" stroke-linecap="round" stroke-linejoin="round"/>
<path d="M118.703 93.7094C120.165 92.2473 121.367 90.5775 123.962 89.6439C126.15 88.8565 128.313 88.3372 130.407 88.9354C132.501 89.5336 135.533 90.7185 137.099 92.1974C138.665 93.6763 138.579 93.6611 139.115 94.4654" stroke="black" stroke-width="3" stroke-linecap="round" stroke-linejoin="round"/>
<path d="M128.378 94.7551C125.849 94.123 125.561 91.2221 126.617 89.7151C127.15 88.9547 128.08 88.6536 129.157 88.6434C130.258 88.6329 130.98 89.0461 131.979 89.4901C133.146 90.0087 133.559 92.8768 131.979 94.2879C130.921 95.2326 129.396 95.0097 128.378 94.7551Z" fill="black" stroke="black" stroke-width="3" stroke-linecap="round" stroke-linejoin="round"/>
<path d="M123.783 94.8521C125.476 95.4165 127.054 95.981 129.145 95.981C130.555 95.981 132.814 95.4165 134.115 95.1041" stroke="black" stroke-width="3" stroke-linecap="round" stroke-linejoin="round"/>
<path d="M170.446 95.0976C172.221 94.3184 173.693 93.084 175.43 92.3121C177.167 91.5402 180.165 91.1832 180.792 91.1832C182.179 91.1832 184.461 91.1832 189.259 95.0976" stroke="black" stroke-width="3" stroke-linecap="round" stroke-linejoin="round"/>
<path d="M138.731 135.885C142.127 136.081 146.361 136.081 148.447 136.081C150.716 136.081 152.036 137.063 154.159 137.145C156.593 137.239 159.059 136.335 160.19 136.335C161.601 136.335 169.784 136.662 171.239 135.885" stroke="black" stroke-width="3" stroke-linecap="round" stroke-linejoin="round"/>
<path d="M138.227 137.397C140.923 139.737 143.946 141.659 147.208 143.109C150.47 144.559 153.706 143.956 157.085 143.956C159.996 143.956 164.988 141.98 166.681 140.569C168.374 139.158 170.058 137.491 170.483 136.641" stroke="black" stroke-width="3" stroke-linecap="round" stroke-linejoin="round"/>
<path d="M159.046 93.9082C158.02 99.1639 159.046 104.408 159.046 109.532" stroke="black" stroke-width="3" stroke-linecap="round" stroke-linejoin="round"/>
<path d="M167.614 198.236C169.467 196.78 169.793 197.269 171.898 197.228C174.056 197.187 176.168 196.724 178.352 196.724C180.834 196.724 183.279 195.968 185.758 195.968C186.473 195.968 188.524 195.728 188.782 195.212" stroke="black" stroke-width="3" stroke-linecap="round" stroke-linejoin="round"/>
</svg>
