<svg width="320" height="252" viewBox="0 0 320 252" fill="none" xmlns="http://www.w3.org/2000/svg">
<path d="M166.409 50.9124C164.102 49.711 158.649 49.9408 156.337 51.5323C155.346 52.2144 154.062 53.0778 152.916 53.3622C151.483 53.7179 150.038 55.7111 148.975 56.7239C147.266 58.3517 145.991 59.3024 143.555 58.999C141.844 58.7859 140.345 58.287 138.655 58.0765C134.193 57.521 129.276 59.1717 125.208 60.7057C117.953 63.4414 116.86 71.4369 116.767 78.4655C116.673 85.5212 116.232 92.6584 115.356 99.6865C114.748 104.571 113.839 109.361 113.234 114.225C112.554 119.68 111.678 125.278 110.862 130.762C110.16 135.48 107.839 139.993 107.248 144.732C106.88 147.692 105.854 152.595 107.828 155.13L117.848 169.427C118.52 170.29 119.245 171.106 119.929 171.942C120.924 173.157 122.198 175.2 123.471 176.114C126.164 178.05 130.728 180.595 133.507 182.446C134.777 183.292 135.945 184.236 137.237 185.097C138.709 186.077 139.837 187.434 141.361 188.352C143.485 189.631 146.338 190.846 148.821 191.155C152.372 191.597 156.444 192.11 159.932 191.532C161.859 191.213 163.488 190.15 165.207 189.308C166.222 188.811 167.18 188.263 168.149 187.696C168.724 187.36 169.981 187.167 170.396 186.657C171.118 185.769 172.369 184.945 173.27 184.204C175.02 182.764 176.999 181.788 178.766 180.342C180.599 178.841 184.51 176.449 186.028 174.932C187.546 173.414 190.933 169.728 192.876 167.377C195.392 164.332 197.186 161.169 199.032 157.662C201.001 153.919 205.822 151.052 206.524 146.69C206.87 144.536 207.671 142.494 207.943 140.308C208.137 138.751 208.962 136.204 208.487 134.684C208.056 133.304 208.11 131.396 207.851 129.902C207.472 127.717 207.388 125.477 206.688 123.353C205.502 119.756 204.876 114.713 204.47 110.939C204.299 109.353 204.077 107.637 203.823 106.104C203.581 104.646 203.961 102.991 203.517 101.589C203.182 100.53 202.713 99.0522 202.74 97.9344C202.806 95.2122 203.371 92.7254 203.702 90.0717C203.967 87.9401 203.482 86.0429 203.15 83.912C202.819 81.7854 201.302 79.9942 200.772 77.924C200.275 75.9826 199.687 73.6231 198.62 71.9295C197.525 70.1902 196.297 68.0366 195.615 66.1063C194.91 64.1139 194.32 63.2146 193.039 61.5687C190.917 58.8435 188.242 56.5288 186.019 53.9788C184.528 52.2687 181.255 52.1237 179.251 51.1925C177.399 50.3324 175.589 50.1813 173.577 49.9308C171.98 49.7319 170.418 50.162 168.87 49.9693C168.007 49.8619 166.042 51.3532 166.178 50.2589" stroke="black" stroke-width="3" stroke-linecap="round" stroke-linejoin="round"/>
<path d="M134.176 184.368C129.961 201.672 122.621 211.914 119.479 214.872" stroke="black" stroke-width="3"/>
<path d="M152.605 46.3822C150.021 46.0604 148.037 45.5583 145.646 44.5785C142.644 43.3483 140.586 40.9352 138.24 38.8321C135.524 36.3971 132.5 34.2923 129.791 31.8453C128.544 30.7185 128.216 29.7345 128.791 31.929C130.047 36.7123 131.955 41.1821 134.114 45.6241C134.827 47.091 135.607 48.6624 136.536 50.0037C137.439 51.3065 134.363 49.7965 134.058 49.6952C129.081 48.0386 123.977 45.3474 119.292 42.9975C118.043 42.3714 118.007 41.8962 118.369 43.438C118.679 44.7555 119.339 46.0321 119.851 47.284C120.63 49.1867 122.089 52.0468 123.688 53.4016C124.341 53.9548 125.131 54.2734 125.793 54.7569C126.394 55.1962 127.74 54.8929 126.466 55.6217" stroke="black" stroke-width="3" stroke-linecap="round" stroke-linejoin="round"/>
<path d="M181.899 41.9086C180.036 40.0937 179.201 38.2508 178.351 35.8443C177.742 34.121 176.82 32.5778 176.225 30.8942C174.936 27.2462 172.674 23.2827 170.547 20.1917C169.635 18.8656 169.22 17.9593 167.808 17.1088C166.971 16.6047 164.671 16.3364 163.702 16.2158C162.107 16.0172 160.512 15.8186 158.917 15.62C156.901 15.3689 155.065 16.1191 153.129 16.5305C148.596 17.4937 144.085 17.6521 139.541 18.205C133.993 18.8802 129.498 21.0749 124.597 23.5283C122.176 24.7404 119.683 25.9034 117.533 27.5771C115.548 29.1225 113.993 31.3939 111.828 32.6974C110.744 33.3505 109.518 34.3955 108.686 35.3602C108.068 36.0759 107.02 36.9487 106.581 37.7705C105.481 39.8273 102.768 41.082 102.047 43.3837C99.1029 52.7758 95.4386 61.791 93.2408 71.458C92.5286 74.5908 90.9322 77.5946 90.5326 80.8039C90.1606 83.7912 89.2617 86.6733 88.8045 89.6645C87.7999 96.2382 86.2398 102.736 85.4135 109.372C84.5311 116.458 83.6488 123.544 82.7664 130.63C82.4172 133.434 81.7609 136.197 81.4162 138.965C80.8949 143.151 80.6866 147.332 80.1641 151.529C79.7072 155.197 79.6185 159.01 79.4154 162.698C79.202 166.571 78.7527 170.389 78.2717 174.252C77.8431 177.693 76.8831 181.636 77.3925 185.075C77.6054 186.511 77.3804 188.018 77.5569 189.468C77.6329 190.092 78.1927 192.646 77.8191 192.937" stroke="black" stroke-width="3" stroke-linecap="round" stroke-linejoin="round"/>
<path d="M120.644 182.651C118.944 185.247 118.203 188.771 117.493 191.786C116.822 194.637 116.65 197.487 116.559 200.398C116.435 204.41 117.257 209.362 118.398 213.226C120.127 219.078 121.53 225.095 122.99 230.977C123.456 232.856 123.623 232.305 122.187 231.572C120.198 230.554 118.07 229.496 116.214 228.259C114.365 227.028 112.053 226.39 109.995 225.524C107.223 224.359 104.439 223.265 101.776 221.846C97.1681 219.39 92.7127 216.756 89.0635 213.009C87.5419 211.447 86.7645 209.461 85.4769 207.808C84.531 206.593 83.387 205.511 82.6771 204.092C81.5111 201.763 80.4372 199.048 79.1281 196.917C78.211 195.424 78.7427 193.886 78.2033 192.36" stroke="black" stroke-width="3" stroke-linecap="round" stroke-linejoin="round"/>
<path d="M173.45 23.768C175.708 24.4235 181.134 26.1417 183.658 25.3765C186.481 24.5206 188.642 26.4875 190.45 28.2943C191.176 29.0194 191.105 30.0473 191.762 30.7224C192.205 31.1769 194.331 29.2821 194.828 28.9357C196.795 27.5636 197.866 27.4086 200.195 28.3994C202.304 29.2963 204.679 29.9207 206.175 31.8425C207.754 33.871 207.623 36.983 208.154 39.3651C208.937 42.884 210.062 47.2176 209.974 50.8674C209.923 52.9657 210.783 55.0241 210.935 57.0827C211.113 59.5053 212.426 61.4611 212.705 63.7601C212.906 65.4089 213.825 67.1747 214.348 68.7592C214.908 70.4593 215.051 72.4135 215.762 74.0431C217.329 77.6383 217.505 82.0825 218.184 85.9336C219.456 93.1455 218.59 100.772 220.22 107.895C222.223 116.65 224.054 125.44 226.273 134.164C227.632 139.505 228.341 145.023 229.676 150.369C230.961 155.512 230.617 160.227 229.968 165.439C229.466 169.468 227.262 173.242 226.771 177.184C226.393 180.222 225.577 184.204 224.344 187.001C222.138 192.003 221.108 197.443 218.853 202.46C217.614 205.216 216.408 207.867 214.735 210.38C212.654 213.504 209.828 215.185 207.075 217.714C205.371 219.279 203.757 220.94 202.051 222.461C200.464 223.876 198.656 225.933 196.552 226.571C193.758 227.418 191.1 229.094 188.41 230.231C186.7 230.955 184.967 230.861 183.197 231.076C178.774 231.614 175.134 232.578 170.695 232.025C167.384 231.613 162.32 231.697 159.148 232.659C156.549 233.447 152.932 233.245 150.189 233.399C149.679 233.427 146.835 234.591 146.913 233.4C147.017 231.797 146.492 230.178 147.177 228.567C148.841 224.655 150.042 220.395 152.216 216.738C153.239 215.016 155.06 213.759 155.977 212.074C156.828 210.509 157.843 209.016 158.899 207.571C160.475 205.414 162.109 202.458 162.827 199.82C163.598 196.989 165.625 194.605 166.91 191.992C167.776 190.232 169.15 188.226 170.297 186.656" stroke="black" stroke-width="3" stroke-linecap="round" stroke-linejoin="round"/>
<path d="M180.143 87.9246C175.897 89.7074 170.132 91.4116 166.652 94.5372C166.901 94.7034 167.201 96.3643 167.396 96.8317C167.9 98.0409 168.416 97.6393 169.388 96.8827L169.391 96.88C170.655 95.8963 177.175 91.3084 182.944 90.9185C185.478 90.7472 187.18 91.1744 189.426 91.4539C191.802 91.7498 194.175 92.3026 196.49 92.5909C196.725 92.6202 197.96 92.9468 198.151 92.7978C198.208 92.7534 197.86 92.0492 197.709 91.985C196.935 91.6555 196.01 91.0711 195.32 90.5008C192.581 88.2372 189.174 86.7903 185.671 86.3541C183.841 86.1262 181.784 87.2353 180.143 87.9246Z" fill="black" stroke="black" stroke-width="3" stroke-linecap="round" stroke-linejoin="round"/>
<path d="M168.4 107.365C168.808 104.632 172.37 103.647 174.631 102.794C177.243 101.809 180.446 101.659 183.236 102.007C184.552 102.171 185.838 102.073 187.182 102.241C188.493 102.404 189.771 103.461 190.815 104.18C190.911 104.246 193.016 105.721 192.931 105.787C192.738 105.938 190.898 105.277 190.541 105.232C188.35 104.96 186.23 105.21 184.015 104.935C181.763 104.654 179.54 105.8 177.364 105.65C174.022 105.422 170.878 107.931 167.608 107.524" stroke="black" stroke-width="3" stroke-linecap="round" stroke-linejoin="round"/>
<path d="M137.326 106.841C135.134 104.803 132.863 103.969 130.007 103.614C129.057 103.496 128.079 103.268 127.138 103.457C126.408 103.603 125.381 103.339 124.733 103.6C124.255 103.793 122.901 103.758 122.405 103.697C121.36 103.567 119.563 104.452 118.534 104.816C118.054 104.985 114.158 106.095 114.962 106.63" stroke="black" stroke-width="3" stroke-linecap="round" stroke-linejoin="round"/>
<path d="M114.9 109.196C117.103 108.627 120.134 107.017 122.47 107.308C124.434 107.552 126.309 107.307 128.265 107.271C131.001 107.222 139.186 107.845 136.471 107.507" stroke="black" stroke-width="3" stroke-linecap="round" stroke-linejoin="round"/>
<path d="M159.465 102.65C154.107 104.196 159.934 124.121 161.44 125.028C162.946 125.935 167.91 130.03 166.543 132.612C165.176 135.194 161.087 135.926 158.91 133.978" stroke="black" stroke-width="3" stroke-linecap="round" stroke-linejoin="round"/>
<path d="M144.261 102.815C148.589 107.46 148.767 114.161 148.024 120.126C147.602 123.514 138.07 128.098 140.049 132.678C140.15 132.913 140.418 133.219 140.418 133.219C140.855 134.231 143.815 135.187 145.986 134.427" stroke="black" stroke-width="3" stroke-linecap="round" stroke-linejoin="round"/>
<path d="M146.303 133.952C146.163 131.925 146.669 131.215 148.739 131.953C149.579 132.253 150.997 133.127 151.181 134.045" stroke="black" stroke-width="3" stroke-linecap="round" stroke-linejoin="round"/>
<path d="M152.923 134.519C154.278 133.77 155.439 132.157 156.964 131.92C157.677 131.809 160.538 131.766 159.258 133.249" stroke="black" stroke-width="3" stroke-linecap="round" stroke-linejoin="round"/>
<path d="M143.916 109.721C145.805 106.486 150.251 106.213 153.632 106.556C155.568 106.752 161.272 108.022 159.341 107.781" stroke="black" stroke-width="3" stroke-linecap="round" stroke-linejoin="round"/>
<path d="M133.579 150.034C138.126 149.231 142.572 149.557 147.093 149.112C150.028 148.823 152.929 149.107 155.866 148.921C158.683 148.744 161.575 148.831 164.388 148.822C167.489 148.813 170.607 148.671 173.695 148.644C174.487 148.637 176.01 148.384 175.419 149.678C174.915 150.78 174.315 152.06 173.606 153.078C171.961 155.441 170.376 157.315 168.091 159.084C166.598 160.239 165.002 161.381 163.171 161.952C161.86 162.362 160.039 163.609 158.656 163.471C157.055 163.311 155.239 163.697 153.6 163.641C151.421 163.567 149.743 162.871 147.727 162.202C146.103 161.662 144.564 160.966 143.019 160.197C141.729 159.556 140.803 158.421 139.671 157.598C138.581 156.807 137.796 155.574 136.754 154.743C136.092 154.215 135.443 153.297 135.207 152.47C134.985 151.689 134.495 150.962 134.273 150.182C133.977 149.139 136.702 149.001 137.418 148.632C138.319 148.167 139.923 148.163 140.943 147.947C142.259 147.669 143.564 147.615 144.873 147.276C146.646 146.816 149.387 145.829 151.233 146.223C152.048 146.396 153.185 147.051 153.93 147.044C154.745 147.037 155.759 146.471 156.578 146.259C157.612 145.991 158.746 146.119 159.788 145.899C161.199 145.6 162.607 145.252 164.039 145.557C166.379 146.055 168.835 145.795 171.192 146.297C172.04 146.478 173.497 146.514 173.81 147.493C173.858 147.644 175.58 149.41 174.726 148.095" stroke="black" stroke-width="3" stroke-linecap="round" stroke-linejoin="round"/>
<path d="M139.189 158.018C140.855 162.66 143.517 167.818 148.745 168.932C150.614 169.33 152.363 169.011 154.214 169.067C155.715 169.112 157.326 168.052 158.697 168.18C159.651 168.269 161.689 166.884 162.476 166.374C163.527 165.692 164.585 164.792 165.488 163.882C167.195 162.161 168.289 160.006 169.69 158.25" stroke="black" stroke-width="3" stroke-linecap="round" stroke-linejoin="round"/>
<path d="M179.939 105.398C178.001 105.7 176.02 104.521 176.686 103.121C177.678 101.038 186.212 100.061 182.47 104.67C181.949 105.075 180.575 105.299 179.939 105.398Z" fill="black" stroke="black" stroke-width="3" stroke-linecap="round" stroke-linejoin="round"/>
<path d="M127.666 107.557C125.727 107.858 123.746 106.679 124.413 105.279C125.405 103.196 133.939 102.219 130.196 106.828C129.676 107.234 128.302 107.458 127.666 107.557Z" fill="black" stroke="black" stroke-width="3" stroke-linecap="round" stroke-linejoin="round"/>
<circle cx="181.559" cy="109.337" r="20.0025" transform="rotate(7.09799 181.559 109.337)" stroke="black" stroke-width="3"/>
<circle cx="123.91" cy="110.785" r="20.0025" transform="rotate(7.09799 123.91 110.785)" stroke="black" stroke-width="3"/>
<path d="M115.817 98.3737C115.912 96.8623 116.135 95.3407 116.323 93.8304C116.505 93.5008 118.096 92.8702 118.096 92.8702C118.096 92.8702 122.508 91.1031 124.293 90.5716C126.079 90.0401 129.636 90.0854 131.401 90.3052C133.166 90.525 136.046 91.1894 136.953 91.8062C138.571 92.9053 140.069 94.3481 141.267 96.1976C141.696 96.8585 142.054 97.4422 142.331 98.2661C142.503 98.7783 143.11 100.29 143.11 100.29C143.11 100.29 141.92 99.4995 141.639 99.2659C140.459 98.2848 139.094 97.6706 137.84 96.8702C137.486 96.6437 134.189 95.2577 131.543 94.9282C128.897 94.5988 126.796 94.0174 123.888 94.8124C120.98 95.6074 117.437 98.0504 116.312 99.0763C116.169 99.2062 116.064 99.2659 115.969 99.4742C115.957 99.5007 115.872 99.7461 115.882 99.6236C115.894 99.4787 115.814 99.3858 115.814 99.2501C115.813 98.9607 115.798 98.6667 115.817 98.3737Z" fill="black" stroke="black" stroke-linecap="round" stroke-linejoin="round"/>
<path d="M169.484 105.261C169.754 104.402 170.44 103.891 171.079 103.282C171.698 102.693 172.355 102.086 173.15 101.729C175.19 100.81 177.339 99.9192 179.588 99.5388C181.672 99.1861 183.715 99.2902 185.823 99.5527C186.855 99.6812 187.896 100.024 188.711 100.642C189.013 100.871 190.889 102.774 190.665 102.854" stroke="black" stroke-width="3" stroke-linecap="round" stroke-linejoin="round"/>
<path d="M116.463 103.351C117.352 102.831 118.105 102.183 119.055 101.796C119.916 101.446 120.901 101.451 121.783 101.139C123.886 100.396 126.19 101.111 128.291 101.422C130.535 101.753 132.695 102.679 134.716 103.681C135.982 104.309 137.55 105.346 137.849 106.835" stroke="black" stroke-width="3" stroke-linecap="round" stroke-linejoin="round"/>
</svg>
