<svg width="320" height="252" viewBox="0 0 320 252" fill="none" xmlns="http://www.w3.org/2000/svg">
<path d="M103.622 86.1207C103.622 78.477 101.837 67.4161 101.837 61.1768C101.837 60.2802 105.2 52.0297 110.882 47.9212C116.564 43.8128 115.94 44.9769 118.07 43.3202C119.843 41.9415 121.66 40.3981 123.445 39.0996C128.071 35.7355 133.084 33.5353 138.362 31.47C145.935 28.5065 153.607 27.3808 161.62 26.2051L161.755 26.1851C166.402 25.5033 171.191 24.579 175.933 25.2111C179.048 25.6265 182.392 26.0116 185.131 27.7363C187.657 29.3267 190.008 31.0956 192.49 32.7506C197.29 35.9506 203.324 37.9303 206.451 43.0677C208.395 46.2616 211.392 48.5174 213.215 51.7976C214.767 54.5913 216.785 57.4823 218.067 60.3651C219.961 64.6264 222.552 68.8047 223.748 73.3517C224.451 76.0216 223.724 79.1546 223.207 81.7389C222.578 84.8874 221.281 87.9467 220.502 91.064C219.801 93.866 219.768 96.8071 219.203 99.6315C218.62 102.547 218.892 105.593 218.247 108.542C217.564 111.666 211.518 137.782 211.518 140.972C211.518 144.162 206.513 155.934 204.669 160.939C202.825 165.945 200.163 179.117 196.238 185.439C192.314 191.762 182.5 199.121 177.159 200.386C167.336 202.712 152.77 201.883 146.447 200.386C140.125 198.888 129.461 191.466 126.952 189.655C125.572 188.658 123.276 186.772 122.21 185.439C120.462 183.254 117.911 179.361 117.468 176.482C116.812 172.214 114.521 165.232 114.044 160.939C113.458 155.67 111.659 149.466 109.881 140.972C108.103 132.478 103.622 107.52 103.622 105.616V86.1207Z" stroke="black" stroke-width="3" stroke-linecap="round" stroke-linejoin="round"/>
<path d="M105 109.966C107.442 109.966 108.51 108.61 109.574 106.536C110.149 105.414 111.165 104.558 111.861 103.523C112.673 102.317 113.408 100.967 114.039 99.6567C114.904 97.8619 115.179 95.7885 115.655 93.8847C116.093 92.1308 116.535 90.3817 116.762 88.5665C117.036 86.3742 117.008 84.1837 117.497 82.0321C117.763 80.8602 118.078 79.698 118.232 78.5017C118.376 77.3822 118.488 76.2289 118.686 75.1166C118.822 74.3488 118.599 73.5379 118.758 72.7751C118.957 71.8277 119.349 70.9619 119.702 70.0706C120.171 68.8861 120.555 67.6379 120.936 66.4223C120.961 66.3437 121.052 65.6223 120.982 65.8687C120.711 66.8154 120.54 67.7982 120.192 68.7184C119.75 69.8875 119.591 71.1363 119.13 72.3123C118.924 72.8401 118.4 73.5609 119.312 73.2833C121.938 72.484 124.702 70.8237 126.727 68.9634C127.916 67.87 129.498 67.8125 130.974 67.3298C131.75 67.0762 132.028 66.8266 131.627 67.7292C131.405 68.2284 131.36 68.7808 131.137 69.2901C130.828 69.998 130.449 70.668 130.239 71.4138C129.849 72.7992 128.974 73.8593 128.279 75.0894C127.798 75.9395 126.918 76.4532 126.327 77.213C126.034 77.5899 126.924 77.4122 127.035 77.3855C127.913 77.1753 128.827 76.9916 129.685 76.7139C131.509 76.1239 133.132 75.2946 134.822 74.4269C135.637 74.0085 136.874 73.4989 137.799 73.5375C137.88 73.5408 137.121 75.842 137.018 76.1875C136.584 77.6501 136.159 79.1393 135.557 80.5437C135.369 80.9816 134.353 82.345 135.23 81.9504C136.544 81.3592 138.106 81.1127 139.478 80.6436C141.594 79.9194 143.397 78.8221 145.386 77.812C148.161 76.4024 150.952 74.8759 153.79 73.6101C156.198 72.5358 158.687 71.5782 161.023 70.352C162.65 69.4977 164.184 68.5135 165.815 67.6747C168.167 66.4651 170.699 65.5736 173.148 64.58C175.397 63.6671 177.77 62.7176 180.127 62.1387C184.857 60.9769 189.613 60.4641 194.466 61.1222C195.789 61.3016 196.988 61.6161 198.278 61.9027C198.96 62.0544 199.742 62.0357 200.383 62.3565C201.203 62.7665 200.197 62.5924 199.911 62.5924C198.853 62.5924 197.878 62.6092 196.871 62.9192C195.063 63.4756 193.436 64.8275 192.397 66.386C192.289 66.548 191.646 67.6355 191.78 67.7836C191.965 67.9893 194.532 67.6553 194.847 67.6203C196.244 67.4651 197.652 67.3298 199.058 67.3298C199.615 67.3298 200.419 67.4766 200.964 67.3208C201.264 67.2352 201.882 67.174 201.472 67.5839C200.918 68.138 200.367 69.0988 199.993 69.7893C198.89 71.8263 197.892 74.659 198.931 76.968C199.372 77.9489 199.742 78.9542 200.147 79.9447C200.51 80.8306 200.8 81.8267 201.218 82.6855C202.005 84.3039 203.037 85.9036 203.505 87.6589C203.672 88.2864 203.832 88.8939 203.832 89.5466C203.832 90.1727 204.227 90.7398 204.313 91.3435C204.358 91.66 204.322 92.1967 204.322 91.3435C204.322 90.2181 204.322 90.6332 204.322 90.9624C204.322 91.3586 204.092 92.0305 204.485 91.8336" stroke="black" stroke-width="3" stroke-linecap="round" stroke-linejoin="round"/>
<path d="M204.096 91.7516C205.296 93.3357 205.54 95.612 206.239 97.4565C206.768 98.8505 207.45 100.176 208.185 101.471C209.031 102.963 209.688 104.551 210.477 106.071C211.669 108.372 212.761 110.684 214.038 112.939C214.635 113.992 215.3 115.103 216 116.088C216.251 116.44 217.562 117.733 217.154 117.869" stroke="black" stroke-width="3" stroke-linecap="round" stroke-linejoin="round"/>
<path d="M104.099 110.729C99.5112 110.729 92.4359 108.565 92.4359 115.957C92.4359 118.855 94.2213 120.377 95.5638 122.794C96.72 124.875 97.609 127.094 98.5577 129.229C99.6868 131.769 99.7908 134.367 100.792 136.87C101.577 138.833 100.903 141.342 101.775 143.304C102.814 145.642 109.753 152.924 112.142 149.739" stroke="black" stroke-width="3" stroke-linecap="round" stroke-linejoin="round"/>
<path d="M217.577 112.561C219.129 111.055 224.877 107.459 226.334 112.561C227.251 115.77 226.228 120.371 224.547 123.397C223.581 125.136 223.114 128.314 222.536 130.279C221.803 132.77 221.702 135.279 220.637 137.674C219.409 140.437 214.313 146.106 211.518 147.503" stroke="black" stroke-width="3" stroke-linecap="round" stroke-linejoin="round"/>
<path d="M184.251 107.452C179.983 107.041 175.224 108.323 172.232 108.026C172.232 108.026 171.695 107.4 171.606 106.41C171.517 105.419 176.295 104.513 178.068 104.354C180.757 104.113 183.871 103.985 186.571 104.335C189.748 104.748 192.826 104.681 195.85 105.908C197.224 106.466 199.714 107.309 199.874 109.089C199.994 110.427 198.75 109.855 198.75 109.855C198.75 109.855 194.461 108.569 192.789 108.273C190.854 107.93 188.52 107.862 184.251 107.452Z" fill="black" stroke="black" stroke-width="3" stroke-linecap="round" stroke-linejoin="round"/>
<path d="M121.743 107.57C119.801 108.199 118.411 110.163 116.976 111.561C116.601 111.925 116.722 112.483 117.216 112.588C117.629 112.676 118.058 112.716 118.476 112.779C119.491 112.933 120.954 112.231 121.893 111.81C124.247 110.757 126.705 110.231 129.107 109.336C134.15 107.457 139.151 108.884 144.267 109.355C144.651 109.39 143.711 107.431 143.51 107.159C142.796 106.189 141.598 104.504 139.337 104.687C137.076 104.87 133.644 105.248 131.761 105.774C129.878 106.3 123.685 106.941 121.743 107.57Z" fill="black" stroke="black" stroke-width="3" stroke-linecap="round" stroke-linejoin="round"/>
<path d="M174.109 117.733C176.086 116.622 178.077 115.727 180.302 115.261C181.741 114.959 182.656 113.808 184.25 114.088C188.398 114.816 200.494 118.376 196.492 117.117" stroke="black" stroke-width="3" stroke-linecap="round" stroke-linejoin="round"/>
<path d="M176.873 116.675C176.174 116.675 174.926 116.724 176.324 116.48C176.822 116.394 177.463 116.109 177.901 115.852C178.674 115.397 179.85 114.714 180.757 114.605C181.833 114.477 182.82 113.821 183.865 113.599C184.629 113.436 185.778 113.533 186.506 113.748C188.373 114.297 190.268 114.576 192.159 115.028C193.08 115.249 193.883 115.44 194.836 115.44C195.219 115.44 195.573 115.667 195.899 115.806C196.583 116.097 196.104 115.934 195.588 116.263" stroke="black" stroke-width="3" stroke-linecap="round" stroke-linejoin="round"/>
<path d="M182.054 119.802C180.491 118.639 179.799 116.721 181.157 115.442C181.609 115.018 181.723 115.078 182.353 114.883C183.478 114.536 184.428 114.498 185.343 114.673C186.348 114.865 187.651 114.788 188.631 115.186C189.145 115.394 189.611 116.078 189.827 116.981C190.084 118.055 189.811 118.758 188.631 119.546C187.658 120.195 186.764 120.543 185.642 120.828C184.608 121.091 183.033 120.53 182.054 119.802Z" fill="black" stroke="black" stroke-width="3" stroke-linecap="round" stroke-linejoin="round"/>
<path d="M178.851 121.137C179.66 121.137 180.25 121.34 180.974 121.34C181.61 121.34 182.026 121.745 182.673 121.745C183.88 121.745 185.123 121.948 186.377 121.948C187.92 121.948 189.365 121.121 190.836 120.721C191.303 120.593 192.885 119.681 193.077 119.313" stroke="black" stroke-width="3" stroke-linecap="round" stroke-linejoin="round"/>
<path d="M119.839 118.897C122.606 117.925 125.645 116.72 128.224 115.42C129.74 114.656 131.968 113.555 133.797 114.283C135.776 115.07 137.851 115.735 139.829 116.502C141.023 116.965 143.023 118.072 143.023 119.295C143.023 119.953 140.328 120.839 139.592 121.183C138.476 121.704 136.477 122.22 135.216 122.276C133.082 122.37 130.967 122.475 128.829 122.475C127.251 122.475 126.277 122.29 124.807 121.878" stroke="black" stroke-width="3" stroke-linecap="round" stroke-linejoin="round"/>
<path d="M120.366 119.84C123.259 119.784 125.899 118.195 128.3 117.142C129.735 116.514 130.928 115.098 132.748 115.098C134.728 115.098 136.934 115.3 138.532 116.331C139.319 116.84 140.345 117.146 141.163 117.648C141.762 118.016 143.339 118.009 142.966 118.892" stroke="black" stroke-width="3" stroke-linecap="round" stroke-linejoin="round"/>
<path d="M129.469 121.157C127.427 120.564 127.475 118.977 128.194 117.891C128.554 117.348 129.232 116.662 129.722 116.384C130.596 115.888 131.061 115.379 132.017 115.128C132.972 114.877 136.848 116.261 137.173 117.415C137.609 118.963 135.31 121.408 133.291 121.408C132.017 121.408 130.668 121.506 129.469 121.157Z" fill="black" stroke="black" stroke-width="3" stroke-linecap="round" stroke-linejoin="round"/>
<path d="M154.351 111.937C155.154 114.27 154.351 125.53 154.351 128.007C154.351 130.484 152.494 137.985 150.926 143.023" stroke="black" stroke-width="3" stroke-linecap="round" stroke-linejoin="round"/>
<path d="M147.759 140.755C144.893 145.222 144.85 148.266 145.414 149.094C146.718 151.01 148.02 149.869 151.408 149.98C154.796 150.09 155.204 153.561 158.965 153.561C162.727 153.561 162.387 150.004 165.741 148.796C167.894 148.021 170.684 149.357 170.684 146.975C170.684 144.592 169.237 140.3 168.087 139.862" stroke="black" stroke-width="3" stroke-linecap="round" stroke-linejoin="round"/>
<path d="M162.693 111.937C162.649 114.227 162.517 116.52 162.517 118.834C162.517 120.375 162.517 123.901 162.517 125.442C162.517 126.983 162.685 133.817 163.005 135.431C163.311 136.974 164.167 141.169 164.888 142.496" stroke="black" stroke-width="3" stroke-linecap="round" stroke-linejoin="round"/>
<path d="M141.442 169.451C143.055 169.451 146.699 168.875 149.979 168.07C152.065 167.558 153.404 168.07 154.984 168.07C156.754 168.07 157.721 168.519 159.199 168.597C160.891 168.686 163.151 168.07 164.732 168.07C166.659 168.07 167.723 168.535 170.001 168.86C171.845 169.124 175.27 169.914 175.27 169.914" stroke="black" stroke-width="3" stroke-linecap="round" stroke-linejoin="round"/>
<path d="M146.027 173.076C148.662 176.211 149.314 175.619 151.815 176.211C154.021 176.733 156.038 176.5 157.619 176.211C159.667 175.837 160.78 175.447 163.151 176.211C166.049 177.146 169.578 175.833 170.791 174.656C171.946 173.535 172.686 171.519 173.162 171.495" stroke="black" stroke-width="3" stroke-linecap="round" stroke-linejoin="round"/>
<path d="M151.823 178.523C153.904 178.523 157.24 177.963 159.216 178.827C161.464 179.811 165.184 179.528 167.556 179.012" stroke="#B3B0B0" stroke-opacity="0.3" stroke-width="3" stroke-linecap="round" stroke-linejoin="round"/>
<path d="M144.969 167.687C146.705 166.968 148.44 166.44 150.021 165.423C151.15 164.697 152.755 163.572 154.137 163.572C155.463 163.572 156.347 163.665 157.512 164.312C157.891 164.523 158.582 164.604 158.873 164.846C159.258 165.166 160.105 164.488 160.517 164.399C161.85 164.114 163.029 163.489 164.48 163.811C165.723 164.088 166.882 164.728 167.942 165.423C169.506 166.447 170.861 167.682 172.646 168.319C173.095 168.479 175.577 169.051 174.758 169.255" stroke="black" stroke-width="3" stroke-linecap="round" stroke-linejoin="round"/>
<path d="M127.494 191.047C128.491 194.1 128.793 196.904 128.793 200.101C128.793 203.218 127.658 205.6 126.917 208.507C126.234 211.187 124.337 213.74 122.985 216.155C122.725 216.62 121.092 218.669 121.975 217.345" stroke="black" stroke-width="3" stroke-linecap="round" stroke-linejoin="round"/>
<path d="M188.452 194.66C187.696 198.861 186.272 203.31 187.496 207.593C188.467 210.992 190.053 215.829 192.997 218.036" stroke="black" stroke-width="3" stroke-linecap="round" stroke-linejoin="round"/>
<path d="M118.403 216.046C120.254 217.935 122.218 220.029 123.544 222.323C125.401 225.537 128.102 227.938 130.885 230.404C135.161 234.192 141.705 238.655 160.41 238.655C179.115 238.655 190.335 218.255 195.567 217.092C200.8 215.93 206.379 217.062 211.693 216.624C219.366 215.991 227.457 215.472 235.142 216.118C237.908 216.351 241.21 216.522 243.836 217.489C244.366 217.685 245.778 218.115 246 217.67" stroke="black" stroke-width="3" stroke-linecap="round" stroke-linejoin="round"/>
<path d="M118.403 216.371C109.752 216.371 91.9142 216.371 91.9142 216.371C91.9142 216.371 76.1922 217.679 74 219.16" stroke="black" stroke-width="3" stroke-linecap="round" stroke-linejoin="round"/>
</svg>
