<svg width="48" height="48" viewBox="0 0 48 48" fill="none" xmlns="http://www.w3.org/2000/svg">
<path d="M28.074 19.512C29.074 19.281 30.29 19.219 31.107 19.84C31.906 20.447 32.129 21.594 31.91 22.573C31.691 23.552 31.112 24.407 30.545 25.235C31.554 25.158 32.596 25.086 33.552 25.415C34.508 25.745 35.364 26.587 35.381 27.598C35.402 28.867 34.204 29.769 33.574 30.871C34.546 30.557 35.618 31.352 35.888 32.337C36.158 33.322 35.806 34.379 35.271 35.249C34.047 37.239 31.959 38.512 29.919 39.651C25.317 42.221 22.558 42.496 17.802 44.77C17.421 44.952 17.03 45.137 16.609 45.171C16.183 45.205 14.387 45.363 13.732 44.622C12.374 43.086 11.104 41.472 9.92998 39.791C8.80998 38.186 7.78198 36.322 7.55198 34.379C7.27598 32.184 8.57198 29.986 8.93098 27.803C9.07398 26.931 9.07198 26.043 9.06898 25.159C9.05998 22.482 9.04598 19.762 8.28398 17.196C7.56198 14.764 6.17398 12.48 6.08698 9.94402C6.06498 9.29302 6.35498 8.68901 6.92698 8.37701C7.37498 8.13401 8.29298 8.25002 8.50498 8.33302C10.937 9.29002 11.687 11.682 13.22 13.799C13.846 14.664 14.12 15.306 14.454 16.319C14.582 16.707 15.015 18.013 15.245 18.351C15.751 19.096 17.247 18.986 18.048 18.575C25.286 15.326 31.873 10.288 39.056 6.92101C39.608 6.66201 40.178 6.40901 40.786 6.35801C41.394 6.30701 42.054 6.49201 42.429 6.97301C42.819 7.47301 42.821 8.18502 42.636 8.79102C42.29 9.92002 41.395 10.793 40.456 11.509C38.979 12.636 37.324 13.5 35.71 14.42C33.041 15.943 30.535 17.672 28.074 19.512Z" fill="#FCBF95"/>
<path d="M38.615 8.13101C38.272 9.24001 39.267 10.6 40.499 10.175C41.734 9.74901 41.311 8.02801 40.551 7.38301C40.063 6.96901 39.352 7.67301 39.844 8.09001C40.061 8.27401 40.531 8.88001 40.22 9.18201C40.043 9.35401 39.729 9.13801 39.627 8.99001C39.497 8.80201 39.516 8.60201 39.579 8.39701C39.77 7.78101 38.805 7.51701 38.615 8.13101Z" fill="#010101"/>
<path d="M42.824 6.666C42.375 6.09 41.593 5.795 40.744 5.86C40.065 5.918 39.458 6.181 38.845 6.468C35.358 8.103 31.966 10.156 28.686 12.14C25.185 14.258 21.565 16.45 17.821 18.13C17.134 18.482 15.962 18.518 15.66 18.069C15.627 18.021 15.436 17.701 14.93 16.161C14.585 15.117 14.288 14.42 13.626 13.506C13.222 12.948 12.867 12.36 12.524 11.79C11.544 10.163 10.618 8.626 8.688 7.866C8.425 7.765 7.325 7.59 6.689 7.939C5.97 8.332 5.559 9.088 5.589 9.962C5.649 11.72 6.299 13.352 6.928 14.929C7.241 15.717 7.567 16.532 7.806 17.34C8.553 19.856 8.562 22.553 8.571 25.162C8.574 26.012 8.577 26.891 8.44 27.723C8.312 28.498 8.062 29.273 7.796 30.093C7.341 31.5 6.871 32.954 7.058 34.439C7.259 36.147 8.066 37.993 9.522 40.079C10.697 41.763 11.987 43.403 13.358 44.955C13.804 45.459 14.6 45.708 15.793 45.708C16.059 45.708 16.344 45.696 16.649 45.671C17.166 45.631 17.619 45.414 18.019 45.224C20.086 44.236 21.777 43.627 23.413 43.039C25.54 42.273 27.549 41.551 30.165 40.09C32.26 38.921 34.413 37.604 35.698 35.513C36.197 34.703 36.719 33.472 36.372 32.206C36.185 31.528 35.698 30.92 35.068 30.58C34.893 30.485 34.713 30.415 34.531 30.369C34.587 30.298 34.643 30.225 34.7 30.152C35.289 29.402 35.898 28.627 35.882 27.592C35.861 26.271 34.778 25.31 33.716 24.944C32.991 24.695 32.235 24.658 31.519 24.676C31.895 24.073 32.237 23.414 32.4 22.684C32.688 21.391 32.3 20.12 31.412 19.443C30.936 19.082 30.371 18.916 29.8 18.866C32.02 17.262 34.006 15.97 35.961 14.856L36.827 14.367C38.152 13.623 39.521 12.854 40.762 11.908C41.572 11.291 42.696 10.311 43.116 8.939C43.379 8.072 43.273 7.244 42.824 6.666ZM6.783 11.343C6.805 11.342 6.823 11.349 6.846 11.345C7.477 11.243 8.068 11.223 8.28 11.939C8.36 12.21 8.424 12.583 8.217 12.815C8.032 13.022 7.687 13.077 7.432 13.142C7.392 13.152 7.365 13.174 7.332 13.191C7.106 12.574 6.916 11.961 6.783 11.343ZM42.157 8.646C41.822 9.743 40.852 10.579 40.152 11.113C38.968 12.016 37.63 12.768 36.336 13.495L35.463 13.987C33.064 15.356 30.62 16.984 27.775 19.113C27.586 19.255 27.522 19.509 27.622 19.724C27.721 19.937 27.954 20.054 28.188 20C28.846 19.845 30.063 19.674 30.805 20.239C31.463 20.739 31.589 21.718 31.422 22.465C31.222 23.364 30.668 24.172 30.133 24.954C30.024 25.112 30.016 25.319 30.112 25.486C30.208 25.652 30.395 25.755 30.583 25.735C31.488 25.666 32.513 25.588 33.389 25.888C34.098 26.132 34.868 26.775 34.881 27.607C34.892 28.287 34.416 28.892 33.913 29.534C33.642 29.878 33.363 30.234 33.141 30.624C33.038 30.803 33.056 31.026 33.186 31.187C33.316 31.348 33.533 31.412 33.728 31.347C34.067 31.237 34.386 31.347 34.592 31.458C34.981 31.668 35.293 32.056 35.406 32.47C35.672 33.437 35.169 34.462 34.845 34.988C33.686 36.874 31.656 38.11 29.675 39.216C27.132 40.637 25.16 41.346 23.072 42.097C21.414 42.694 19.699 43.311 17.587 44.321C17.249 44.482 16.9 44.648 16.546 44.675C14.778 44.821 14.25 44.454 14.107 44.292C12.761 42.77 11.494 41.159 10.341 39.506C8.981 37.558 8.232 35.862 8.049 34.318C7.89 33.051 8.306 31.764 8.746 30.401C9.012 29.582 9.285 28.735 9.425 27.885C9.575 26.972 9.572 26.05 9.57 25.158C9.561 22.479 9.552 19.709 8.764 17.054C8.511 16.202 8.178 15.366 7.856 14.558C7.795 14.406 7.739 14.257 7.68 14.106C7.686 14.105 7.691 14.107 7.698 14.105C8.226 13.971 8.791 13.781 9.103 13.299C9.414 12.818 9.396 12.204 9.244 11.672C8.878 10.391 7.806 10.196 6.64 10.373C6.626 10.224 6.594 10.078 6.589 9.927C6.571 9.439 6.788 9.024 7.169 8.816C7.284 8.753 7.495 8.73 7.707 8.73C7.962 8.73 8.221 8.763 8.321 8.797C9.935 9.433 10.737 10.764 11.666 12.306C12.02 12.893 12.386 13.5 12.814 14.092C13.403 14.905 13.659 15.509 13.979 16.475C14.554 18.225 14.762 18.532 14.831 18.632C15.531 19.661 17.31 19.515 18.253 19.031C22.029 17.336 25.676 15.13 29.203 12.995C32.461 11.024 35.83 8.985 39.268 7.374C39.817 7.116 40.314 6.899 40.828 6.855C41.218 6.82 41.752 6.916 42.035 7.279C42.277 7.593 42.323 8.104 42.157 8.646Z" fill="#010101"/>
<path d="M32.356 12.727C32.6 13.114 33.089 14.279 33.741 13.807C34.257 13.433 33.758 12.565 33.236 12.944C33.221 12.955 33.207 12.965 33.192 12.976C33.32 12.959 33.449 12.942 33.577 12.926C33.775 13.002 33.507 12.681 33.487 12.649C33.398 12.507 33.309 12.365 33.219 12.224C32.877 11.679 32.012 12.18 32.356 12.727Z" fill="#010101"/>
<path d="M33.316 11.879C33.562 12.298 33.808 12.717 34.054 13.136C34.379 13.691 35.244 13.188 34.917 12.631C34.671 12.212 34.425 11.793 34.179 11.374C33.854 10.819 32.989 11.322 33.316 11.879Z" fill="#010101"/>
<path d="M14.702 7.152C15.74 7.917 16.377 9.544 16.868 10.694C17.12 11.284 17.982 10.775 17.731 10.189C17.151 8.83 16.428 7.189 15.206 6.288C14.689 5.906 14.189 6.774 14.702 7.152Z" fill="#010101"/>
<path d="M20.365 2.55801C20.53 4.80801 20.567 7.05701 20.479 9.31101C20.454 9.95501 21.454 9.95301 21.479 9.31101C21.568 7.05701 21.53 4.80801 21.365 2.55801C21.319 1.92001 20.318 1.91501 20.365 2.55801Z" fill="#010101"/>
<path d="M25.921 6.47999C24.857 7.78399 24.09 9.24299 23.645 10.868C23.475 11.49 24.439 11.755 24.609 11.134C25.007 9.68099 25.674 8.35599 26.628 7.18699C27.032 6.69199 26.328 5.98099 25.921 6.47999Z" fill="#010101"/>
</svg>
