<svg width="59" height="59" viewBox="0 0 59 59" fill="none" xmlns="http://www.w3.org/2000/svg">
<path d="M48.3178 27.4027C46.8313 25.0635 43.6738 25.6858 41.5074 26.5846C39.1682 27.541 36.9902 29.0045 35.3424 30.9289C34.6856 31.6895 34.0518 32.4961 33.5678 33.3719C33.3258 33.8213 32.7842 34.7893 33.176 35.158C33.3488 35.3193 33.4064 35.5152 33.3719 35.6996C34.8699 37.7393 37.3129 38.2002 39.7443 37.6932C42.4524 37.1285 45.0106 35.8033 46.8543 33.7176C48.3178 32.0697 49.6775 29.5346 48.3178 27.4027Z" fill="#127274"/>
<path d="M54.575 17.9189C52.7082 12.4799 48.2256 8.49276 42.9248 6.47616C36.7252 4.11385 29.8803 4.55174 23.5885 6.31483C20.7192 7.12147 17.8729 8.12401 15.1879 9.41463C12.9063 10.4978 10.6246 11.8691 8.98829 13.8166C7.14454 16.006 6.49923 18.7256 6.86798 21.5488C7.17911 23.9457 8.03185 26.2158 8.95372 28.4398C8.95372 28.3822 8.95372 28.3131 8.96525 28.2555C9.02286 27.3451 9.17267 26.4463 9.31095 25.5474C9.41466 24.9252 9.50685 24.0955 10.0024 23.6461C10.6016 23.1045 11.558 23.9342 10.9588 24.4873C10.567 24.8445 10.567 25.7088 10.4979 26.1928C10.3826 26.9764 10.2328 27.7369 10.2098 28.532C10.1291 30.514 10.4402 32.4385 11.1547 34.2937C11.7539 35.8379 12.5375 37.3935 13.5746 38.6957C13.9895 39.2142 14.4274 39.7098 14.9344 40.1592C15.0842 40.2859 15.3147 40.4933 15.5336 40.6432C15.7065 40.5971 15.9024 40.6201 16.0867 40.7584C16.444 41.0234 16.9971 41.0695 17.4234 41.1156C17.9305 41.1732 18.449 41.2078 18.9561 41.2539C20.3274 41.3576 21.7217 41.3922 23.1045 41.4037C23.9227 41.4037 24.0149 42.6713 23.1967 42.6713C21.7793 42.6598 20.3389 42.6021 18.9215 42.5099C20.2697 43.8697 21.3068 45.506 22.1711 47.2115C22.8279 48.5137 23.358 49.8389 24.2684 51.0027C25.1211 52.0975 26.1813 53.0539 27.4258 53.6877C29.9609 54.9783 33.1299 55.0244 35.8379 54.2754C38.7879 53.4572 41.0004 51.4521 42.4063 48.7441C43.1668 47.2807 43.6508 45.6904 44.1809 44.1232C44.5842 42.9363 44.999 41.7609 45.483 40.6086C44.9184 40.9428 44.3422 41.2769 43.7891 41.6457C43.6508 41.7379 43.5125 41.7609 43.3742 41.7494C43.3166 41.7724 43.259 41.7955 43.2014 41.8185C43.1092 42.0375 42.9133 42.2103 42.6713 42.2103H42.3256C41.7033 42.2103 41.3807 41.4383 41.9223 41.058C42.4063 40.7123 43.0977 40.6432 43.524 40.2398C43.6508 40.1131 43.8121 40.0439 43.985 40.0324C45.5061 39.1336 47.1309 38.3154 48.3063 37.0133C49.5508 35.6305 50.4727 33.925 50.899 32.1043C51.383 30.0762 51.1525 28.0711 50.7377 26.043C50.5764 25.2709 50.3113 24.5795 50.0578 23.842C49.8734 23.2773 49.7006 22.6666 50.0924 22.1596C50.5879 21.5027 51.5328 22.3439 51.0488 23.0008C51.1986 22.8049 51.141 23.0238 51.1871 23.1851C51.2447 23.358 51.2908 23.5193 51.36 23.6922C51.4752 24.0033 51.6135 24.3029 51.7057 24.6256C51.9822 25.6051 52.1551 26.6307 52.2934 27.6332C52.4547 28.8086 52.4893 29.9379 52.3625 31.0557C53.5725 29.3963 54.5174 27.5295 54.9668 25.5014C55.543 22.9777 55.4047 20.3619 54.575 17.9189ZM37.0018 18.2646C38.4537 18.714 39.9633 19.4515 40.8621 20.7191C41.3346 21.3875 40.2859 22.0904 39.8135 21.4336C39.1221 20.4541 37.8775 19.8549 36.7598 19.5092C35.9877 19.2672 36.2182 18.0226 37.0018 18.2646ZM29.1658 42.1066C29.3502 41.8185 29.4424 41.5189 29.4424 41.1732C29.4424 40.8275 29.6613 40.5164 30.0301 40.4933C30.3527 40.4703 30.7215 40.7353 30.71 41.081C30.6984 41.6342 30.6063 42.1988 30.2951 42.6828C30.1108 42.9709 29.7766 43.1322 29.4424 42.9709C29.1658 42.8211 28.9815 42.4062 29.1658 42.1066ZM19.0022 18.4029C20.0162 17.3773 20.9381 16.3172 22.2633 15.6834C23.0008 15.3262 23.4156 16.5361 22.6781 16.8818C21.5719 17.4119 20.7883 18.3799 19.9471 19.2326C19.3824 19.8203 18.426 18.9906 19.0022 18.4029ZM13.9318 35.4461C12.0651 33.7752 10.4748 31.3437 10.7744 28.7394C11.0395 26.4578 12.8256 24.7523 15.0957 24.5334C17.1815 24.326 19.3133 25.0865 21.1455 26.0199C22.8279 26.8842 24.5104 27.9789 25.8125 29.3617C26.769 30.3873 27.6563 31.4935 28.3592 32.692C28.8662 33.5562 29.3617 34.7892 28.8316 35.6996C28.8432 35.8264 28.8201 35.9646 28.7279 36.0914C25.317 41.4152 17.7461 38.8801 13.9318 35.4461ZM37.3014 47.5111C36.9902 48.6174 36.4486 49.7351 35.4115 50.3344C34.3629 50.9336 33.1875 51.0603 32.0006 51.0027C29.5692 50.8875 27.034 49.908 26.285 47.3728C26.0545 46.5892 27.2529 46.1744 27.4834 46.958C28.0711 48.9631 30.1223 49.6891 32.0467 49.7582C32.9225 49.7812 33.9365 49.7812 34.6971 49.2973C35.4346 48.8363 35.8264 48.1103 36.0568 47.2807C36.2758 46.4855 37.5203 46.7275 37.3014 47.5111ZM32.1043 40.6892C32.0813 40.0439 33.3488 39.9748 33.3719 40.6086C33.3949 41.2539 33.6945 41.8646 33.7176 42.5099C33.7406 43.1553 32.4731 43.2244 32.45 42.5906C32.4154 41.9453 32.1274 41.3346 32.1043 40.6892ZM50.0809 28.7394C50.3805 31.3437 48.7902 33.7637 46.9234 35.4461C43.1092 38.8801 35.5268 41.4152 32.1158 36.1029C32.0236 35.9646 32.0006 35.8379 32.0121 35.7111C31.482 34.8008 31.9775 33.5678 32.4846 32.7035C33.1875 31.4935 34.0748 30.3873 35.0313 29.3732C36.3334 27.9789 38.0158 26.8957 39.6983 26.0314C41.5305 25.098 43.6623 24.349 45.7481 24.5449C48.0297 24.7523 49.8158 26.4578 50.0809 28.7394Z" fill="#BCBCBC"/>
<path d="M27.2875 33.3719C26.8035 32.4846 26.1582 31.6895 25.5129 30.9289C23.865 29.0045 21.6871 27.5525 19.3478 26.5846C17.1699 25.6858 14.024 25.0635 12.5375 27.4027C11.1892 29.5346 12.549 32.0582 14.001 33.7061C15.8447 35.8033 18.4029 37.1285 21.1109 37.6817C23.5424 38.1887 25.9853 37.7162 27.4834 35.6881C27.4603 35.5037 27.5064 35.3078 27.6793 35.1465C28.0826 34.7893 27.5295 33.8098 27.2875 33.3719Z" fill="#127274"/>
<path d="M55.059 15.741C52.7197 10.6246 48.0758 6.97167 42.8557 5.10488C36.6215 2.88085 29.8803 3.33027 23.5654 5.01269C20.65 5.78476 17.7691 6.82187 15.0381 8.08945C12.7104 9.16113 10.4633 10.4863 8.64259 12.3185C6.40704 14.5656 5.39298 17.481 5.51974 20.6269C5.68106 24.5564 7.53634 28.1978 8.97677 31.7701C9.03438 31.9084 9.11505 32.0121 9.21876 32.0697C9.40313 33.0262 9.6797 33.9711 10.0369 34.9045C10.6938 36.5984 11.6041 38.2924 12.768 39.6982C13.494 40.5855 14.6924 42.0951 15.9715 42.0951C16.3287 42.2334 16.7205 42.3141 17.1123 42.3601C17.1238 42.4984 17.193 42.6252 17.3313 42.7404C18.5527 43.7775 19.4977 45.0451 20.3158 46.4049C21.0994 47.707 21.618 49.1359 22.3785 50.4496C23.7959 52.8695 26.043 54.7709 28.751 55.543C31.482 56.3266 34.5818 56.0961 37.2322 55.1512C40.067 54.1486 42.1527 51.89 43.5356 49.2973C44.3076 47.8453 44.7801 46.232 45.3102 44.6764C45.8979 42.9248 46.5201 41.1963 47.3383 39.5369C47.3613 39.4908 47.3729 39.4447 47.3844 39.3986C47.9606 38.9953 48.5252 38.5689 49.0207 38.0619C50.3229 36.7598 51.2678 35.0658 51.8555 33.3143C52.0168 33.3143 52.1781 33.2566 52.3164 33.0953C54.3676 30.7215 55.8541 27.9098 56.3842 24.81C56.9258 21.7447 56.3611 18.5758 55.059 15.741ZM54.9899 25.4898C54.5404 27.5064 53.5955 29.3732 52.3856 31.0441C52.5123 29.9264 52.4662 28.7971 52.3164 27.6217C52.1781 26.6191 52.0053 25.5935 51.7287 24.6141C51.6365 24.2914 51.4982 23.9918 51.383 23.6807C51.3254 23.5193 51.2678 23.3465 51.2102 23.1736C51.1641 23.0123 51.2217 22.7934 51.0719 22.9893C51.5559 22.3439 50.6109 21.5027 50.1154 22.148C49.7236 22.6666 49.8965 23.2773 50.0809 23.8305C50.3344 24.5795 50.5994 25.2594 50.7607 26.0314C51.1756 28.048 51.4061 30.0646 50.9221 32.0928C50.4957 33.9135 49.5738 35.6189 48.3293 37.0018C47.1539 38.3039 45.5176 39.1221 44.008 40.0209C43.8467 40.0324 43.6854 40.1131 43.5471 40.2283C43.1092 40.6316 42.4293 40.7008 41.9453 41.0465C41.4037 41.4268 41.7264 42.1988 42.3486 42.1988H42.6943C42.9363 42.1988 43.1438 42.026 43.2244 41.807C43.282 41.784 43.3397 41.7609 43.3973 41.7379C43.524 41.7494 43.6623 41.7264 43.8121 41.6342C44.3652 41.2769 44.9299 40.9428 45.5061 40.5971C45.0221 41.7494 44.6072 42.9363 44.2039 44.1117C43.6738 45.6674 43.1899 47.2576 42.4293 48.7326C41.0234 51.4406 38.8225 53.4457 35.8609 54.2639C33.1529 55.0129 29.984 54.9668 27.4488 53.6762C26.2043 53.0424 25.1441 52.0859 24.2914 50.9912C23.3811 49.8273 22.851 48.5021 22.1941 47.2C21.3414 45.4945 20.2928 43.8582 18.9445 42.4984C20.3619 42.5906 21.7908 42.6482 23.2197 42.6598C24.0379 42.6598 23.9342 41.4037 23.1275 41.3922C21.7563 41.3807 20.3504 41.3461 18.9791 41.2424C18.4606 41.2078 17.9535 41.1732 17.4465 41.1041C17.0201 41.0465 16.467 41.0119 16.1098 40.7469C15.9254 40.6086 15.7295 40.5855 15.5566 40.6316C15.3377 40.4818 15.1072 40.2744 14.9574 40.1476C14.4619 39.7098 14.0125 39.2143 13.5977 38.6842C12.5606 37.382 11.777 35.8264 11.1777 34.2822C10.4633 32.4269 10.1522 30.5025 10.2328 28.5205C10.2674 27.7369 10.4172 26.9648 10.5209 26.1812C10.59 25.6973 10.59 24.8215 10.9818 24.4758C11.5926 23.9226 10.6246 23.093 10.0254 23.6346C9.52989 24.084 9.42618 24.9137 9.33399 25.5359C9.18419 26.4348 9.04591 27.3336 8.98829 28.2439C8.98829 28.3016 8.97677 28.3707 8.97677 28.4283C8.05489 26.1928 7.20216 23.9342 6.89102 21.5373C6.52227 18.7141 7.16759 15.9945 9.01134 13.8051C10.6246 11.8691 12.9063 10.4978 15.1764 9.41464C17.8613 8.13554 20.7191 7.12148 23.577 6.31484C29.8803 4.55175 36.7137 4.11386 42.9133 6.47617C48.2141 8.49277 52.6852 12.4799 54.5635 17.9189C55.4047 20.3619 55.543 22.9777 54.9899 25.4898Z" fill="black"/>
<path d="M50.0809 28.7395C49.8158 26.4578 48.0297 24.7523 45.7596 24.5334C43.6738 24.326 41.542 25.0865 39.7098 26.0199C38.0274 26.8842 36.3449 27.9789 35.0428 29.3617C34.0863 30.3873 33.199 31.4936 32.4961 32.692C31.9891 33.5563 31.4936 34.7893 32.0236 35.6996C32.0121 35.8264 32.0352 35.9647 32.1274 36.0914C35.5383 41.4037 43.1207 38.857 46.935 35.4346C48.7902 33.7752 50.392 31.3438 50.0809 28.7395ZM46.8658 33.7176C45.0221 35.8148 42.4639 37.14 39.7559 37.6932C37.3244 38.2002 34.8815 37.7277 33.3834 35.6996C33.4065 35.5152 33.3604 35.3193 33.1875 35.158C32.7842 34.7893 33.3373 33.8098 33.5793 33.3719C34.0633 32.4846 34.7086 31.6895 35.3539 30.9289C37.0018 29.0045 39.1797 27.5525 41.519 26.5846C43.6969 25.6857 46.8428 25.0635 48.3293 27.4027C49.6776 29.5346 48.3178 32.0697 46.8658 33.7176ZM28.3707 32.7035C27.6678 31.4936 26.7805 30.3873 25.824 29.3732C24.5219 27.9789 22.8395 26.8957 21.157 26.0314C19.3248 25.0981 17.193 24.349 15.1072 24.5449C12.8371 24.7639 11.051 26.4693 10.786 28.751C10.4863 31.3553 12.0766 33.7752 13.9434 35.4576C17.7576 38.8916 25.3401 41.4268 28.751 36.1145C28.8432 35.9762 28.8662 35.8494 28.8547 35.7227C29.3733 34.7893 28.8662 33.5678 28.3707 32.7035ZM27.6793 35.158C27.5065 35.3193 27.4488 35.5152 27.4834 35.6996C25.9854 37.7393 23.5424 38.2002 21.111 37.6932C18.4029 37.1285 15.8447 35.8033 14.001 33.7176C12.549 32.0697 11.1893 29.5346 12.5375 27.4143C14.024 25.075 17.1815 25.6973 19.3479 26.5961C21.6871 27.5525 23.8651 29.016 25.5129 30.9404C26.1697 31.701 26.8035 32.5076 27.2875 33.3834C27.5295 33.8098 28.0826 34.7893 27.6793 35.158ZM30.0301 40.4934C29.6613 40.5164 29.4539 40.8275 29.4424 41.1732C29.4424 41.5189 29.3387 41.8186 29.1658 42.1066C28.9815 42.3947 29.1658 42.8096 29.4539 42.9594C29.7881 43.1207 30.1223 42.9709 30.3067 42.6713C30.6063 42.1873 30.71 41.6342 30.7215 41.0695C30.7215 40.7238 30.3528 40.4703 30.0301 40.4934ZM33.3604 40.6086C33.3373 39.9633 32.0697 40.0439 32.0928 40.6893C32.1158 41.3346 32.4154 41.9453 32.4385 42.5906C32.4615 43.2359 33.7291 43.1553 33.7061 42.51C33.683 41.8646 33.3834 41.2539 33.3604 40.6086ZM36.0569 47.2691C35.8264 48.0873 35.4346 48.8248 34.6971 49.2857C33.925 49.7697 32.911 49.7812 32.0467 49.7467C30.1223 49.6891 28.0711 48.9631 27.4834 46.9465C27.2529 46.1629 26.0545 46.5777 26.285 47.3613C27.034 49.8965 29.5576 50.8875 32.0006 50.9912C33.1875 51.0488 34.3629 50.9221 35.4115 50.3229C36.4486 49.7236 37.0018 48.6059 37.3014 47.4996C37.5203 46.7275 36.2758 46.4855 36.0569 47.2691ZM40.8621 20.7191C39.9633 19.4516 38.4537 18.7141 37.0018 18.2647C36.2182 18.0227 35.9877 19.2672 36.7598 19.5092C37.8776 19.8549 39.1221 20.4541 39.8135 21.4336C40.286 22.0904 41.3346 21.3875 40.8621 20.7191ZM22.2633 15.6949C20.9381 16.3287 20.0162 17.3773 19.0022 18.4145C18.426 19.0022 19.3824 19.8318 19.9586 19.2557C20.7998 18.4029 21.5834 17.435 22.6897 16.9049C23.4156 16.5361 23.0008 15.3377 22.2633 15.6949Z" fill="black"/>
</svg>
