<svg width="48" height="48" viewBox="0 0 48 48" fill="none" xmlns="http://www.w3.org/2000/svg">
<path d="M44.306 9.45299C43.81 9.07299 43.182 8.91399 42.567 8.80899C40.144 8.39599 37.664 8.68899 35.217 8.92599C26.22 9.79799 16.86 8.94099 7.82799 8.58299C6.74399 8.53999 5.18199 8.69799 4.14699 9.02499C3.11199 9.35199 2.14099 10.069 1.78899 11.096C1.53199 11.844 1.62699 12.66 1.71599 13.446C2.37399 19.251 1.72799 26.871 1.48899 32.708C1.46499 33.287 1.44099 33.888 1.65999 34.425C1.85899 34.914 2.24699 35.307 2.68599 35.599C4.09599 36.539 5.92199 36.489 7.61499 36.405C14.633 36.055 23.003 36.818 30.021 36.468L45.117 17.894C44.921 16.679 45.286 14.046 45.389 12.82C45.492 11.594 45.283 10.202 44.306 9.45299Z" fill="#C0E6ED"/>
<path d="M32.292 40.309L31.813 40.315V36.468H17.604V40.5L15.488 40.528L13.932 41.301L13.614 42.417L33.12 42.832L32.292 40.309Z" fill="#BCBCBC"/>
<path d="M37.332 31.23C37.173 30.523 37.014 29.814 36.76 29.136C35.94 26.945 34.206 25.244 32.524 23.619C31.496 22.626 30.543 21.538 29.125 21.717C28.996 21.733 28.856 21.768 28.782 21.875C28.73 21.95 28.722 22.045 28.717 22.136C28.575 24.547 29.091 26.922 29.881 29.203C30.348 30.553 31.081 32.173 32.42 32.669L37.547 32.844C37.365 32.035 37.514 32.039 37.332 31.23Z" fill="#2B8C5E"/>
<path d="M30.672 32.531C35 32.915 39.426 32.999 43.753 32.608C44.503 32.54 45.278 32.481 45.867 32.95C46.401 33.374 46.571 34.127 46.497 34.805C46.423 35.483 46.145 36.118 45.931 36.766C44.792 40.206 45.517 39.167 44.578 42.667C44.48 43.031 44.351 43.413 44.056 43.648C43.752 43.889 43.339 43.924 42.951 43.946C40.344 44.098 36.721 44.388 34.11 44.36C33.789 44.356 33.457 44.349 33.165 44.215C32.614 43.962 32.354 43.337 32.15 42.766C30.64 38.536 30.408 38.709 29.634 34.284C29.56 33.862 29.496 33.4 29.708 33.028C29.919 32.655 30.303 32.468 30.672 32.531Z" fill="#F58420"/>
<path d="M36.938 19.031L41.657 15.343C41.657 15.343 43.282 17.749 42.407 20.156C40.031 21.563 39.094 21.969 36.938 19.031Z" fill="#71C598"/>
<path d="M36.115 18.554C35.279 18.072 34.29 17.832 33.454 17.349C32.912 17.036 32.353 16.717 31.734 16.625C31.534 19.448 32.381 21.891 33.515 24.484L35.651 27.066L39.27 21.541C38.812 20.232 37.317 19.248 36.115 18.554Z" fill="#38B47B"/>
<path d="M46.407 17.563C41.784 18.974 37.217 22.494 35.652 27.067L37.312 32.917L43.592 32.609C46.27 29.47 46.875 22.953 46.407 17.563Z" fill="#2B8C5E"/>
<path d="M37.546 33.344C37.317 33.344 37.111 33.186 37.059 32.953C36.958 32.505 36.949 32.266 36.94 32.057C36.932 31.866 36.925 31.701 36.845 31.34C36.693 30.662 36.535 29.961 36.292 29.313C35.496 27.185 33.732 25.482 32.177 23.979L31.902 23.71C31.019 22.844 30.263 22.079 29.216 22.21C29.108 24.308 29.482 26.523 30.354 29.041C30.751 30.187 31.416 31.764 32.595 32.2C32.854 32.296 32.986 32.584 32.89 32.843C32.794 33.101 32.508 33.235 32.247 33.138C30.672 32.555 29.873 30.707 29.409 29.368C28.479 26.68 28.09 24.305 28.219 22.107C28.224 22.005 28.236 21.79 28.37 21.593C28.587 21.281 28.945 21.236 29.062 21.22C30.596 21.025 31.616 22.028 32.603 22.995L32.873 23.259C34.504 24.835 36.354 26.622 37.23 28.96C37.497 29.674 37.662 30.409 37.822 31.12C37.923 31.568 37.932 31.806 37.941 32.016C37.949 32.207 37.956 32.373 38.037 32.734C38.098 33.004 37.928 33.271 37.659 33.332C37.62 33.34 37.583 33.344 37.546 33.344Z" fill="#010101"/>
<path d="M43.592 33.108C43.477 33.108 43.362 33.069 43.267 32.989C43.057 32.809 43.032 32.494 43.211 32.284C45.76 29.296 46.304 23.186 45.957 18.233C41.284 19.841 37.46 23.32 36.124 27.228C36.034 27.489 35.749 27.627 35.489 27.539C35.228 27.45 35.088 27.166 35.177 26.904C36.67 22.538 41.02 18.683 46.259 17.084C46.404 17.04 46.561 17.063 46.685 17.148C46.81 17.232 46.89 17.369 46.903 17.519C47.36 22.774 46.829 29.582 43.971 32.932C43.874 33.049 43.733 33.108 43.592 33.108Z" fill="#010101"/>
<path d="M33.516 24.984C33.323 24.984 33.14 24.872 33.058 24.684C31.821 21.856 31.037 19.397 31.236 16.589C31.246 16.449 31.313 16.321 31.422 16.235C31.53 16.147 31.67 16.106 31.809 16.131C32.53 16.238 33.154 16.599 33.704 16.915C34.091 17.139 34.517 17.308 34.969 17.486C35.435 17.671 35.916 17.861 36.365 18.121C37.671 18.875 39.236 19.927 39.743 21.377C39.834 21.638 39.697 21.923 39.436 22.014C39.176 22.11 38.89 21.968 38.799 21.707C38.401 20.567 37.022 19.654 35.865 18.986C35.479 18.763 35.052 18.594 34.601 18.416C34.135 18.231 33.654 18.041 33.204 17.781C32.879 17.594 32.547 17.403 32.206 17.27C32.168 19.632 32.888 21.803 33.973 24.284C34.084 24.537 33.969 24.832 33.715 24.942C33.651 24.971 33.583 24.984 33.516 24.984Z" fill="#010101"/>
<path d="M42.566 19.689C42.54 19.689 42.514 19.687 42.487 19.683C42.214 19.639 42.028 19.383 42.071 19.111C42.215 18.202 42.073 17.263 41.612 16.067C41.608 16.057 41.604 16.047 41.601 16.04C41.572 16.054 41.534 16.075 41.487 16.107C40.419 16.818 39.511 17.675 38.634 18.504C38.241 18.875 37.861 19.234 37.483 19.565C37.275 19.746 36.959 19.726 36.777 19.518C36.595 19.31 36.616 18.995 36.824 18.813C37.193 18.491 37.563 18.139 37.946 17.778C38.854 16.92 39.792 16.033 40.931 15.275C41.492 14.899 41.888 14.994 42.12 15.136C42.388 15.3 42.494 15.575 42.544 15.708C42.899 16.629 43.28 17.866 43.058 19.267C43.021 19.514 42.808 19.689 42.566 19.689Z" fill="#010101"/>
<path d="M25.77 37.062C23.479 37.062 21.118 36.999 18.805 36.937C15.033 36.835 11.132 36.732 7.64 36.905C6.109 36.985 4.013 37.086 2.409 36.016C1.833 35.631 1.414 35.147 1.197 34.614C0.937005 33.975 0.965005 33.292 0.990005 32.688C1.039 31.484 1.106 30.205 1.175 28.881C1.439 23.814 1.738 18.071 1.22 13.502C1.128 12.689 1.025 11.784 1.317 10.934C1.688 9.85399 2.69 8.96199 3.997 8.54899C5.19 8.17199 6.829 8.04599 7.849 8.08299C9.834 8.16199 11.835 8.26499 13.845 8.36799C20.895 8.73099 28.186 9.10599 35.17 8.42799L35.69 8.37699C37.973 8.15199 40.334 7.92099 42.652 8.31599C43.283 8.42299 44.01 8.59499 44.611 9.05599C45.916 10.055 45.971 11.869 45.888 12.862C45.866 13.133 45.83 13.473 45.791 13.85C45.655 15.15 45.47 16.93 45.612 17.814C45.656 18.087 45.471 18.343 45.198 18.387C44.923 18.438 44.668 18.245 44.625 17.974C44.461 16.958 44.655 15.102 44.796 13.746C44.835 13.376 44.869 13.044 44.892 12.777C44.958 11.988 44.931 10.559 44.003 9.84899C43.575 9.52099 42.995 9.38799 42.484 9.30099C40.298 8.92799 38.005 9.15299 35.787 9.37099L35.266 9.42199C28.207 10.106 20.88 9.72899 13.794 9.36499C11.787 9.26399 9.79 9.16099 7.808 9.08299C6.846 9.03699 5.328 9.17699 4.298 9.50199C3.291 9.81999 2.53 10.477 2.262 11.258C2.043 11.896 2.129 12.649 2.211 13.377C2.739 18.04 2.439 23.827 2.173 28.933C2.104 30.253 2.038 31.529 1.988 32.729C1.967 33.255 1.944 33.799 2.122 34.237C2.301 34.675 2.678 34.994 2.963 35.184C4.192 36.002 5.785 35.995 7.59 35.907C11.117 35.73 15.039 35.837 18.831 35.937C22.604 36.04 26.506 36.143 29.996 35.969C30.257 35.942 30.506 36.167 30.52 36.443C30.534 36.719 30.321 36.954 30.045 36.967C28.67 37.036 27.234 37.062 25.77 37.062Z" fill="#010101"/>
<path d="M17.604 40.809C17.337 40.809 17.115 40.598 17.105 40.329C17.078 39.631 17.091 39.005 17.105 38.379C17.118 37.772 17.131 37.165 17.105 36.488C17.094 36.212 17.31 35.979 17.585 35.968C17.84 35.99 18.093 36.172 18.104 36.448C18.131 37.146 18.118 37.772 18.104 38.398C18.091 39.005 18.078 39.612 18.104 40.289C18.115 40.565 17.899 40.798 17.624 40.809C17.617 40.809 17.61 40.809 17.604 40.809Z" fill="#010101"/>
<path d="M30.936 43.202C30.397 43.202 29.855 43.176 29.324 43.149L28.791 43.125C25.067 42.966 21.854 42.989 18.457 43.014C17.08 43.024 15.67 43.037 14.199 43.033C14.028 43.033 13.772 43.016 13.541 42.869C13.037 42.548 13.023 41.886 13.271 41.396C13.985 39.992 15.811 39.962 17.122 40.065C21.574 40.409 25.914 40.323 31.06 40.085C31.327 40.057 31.569 40.285 31.582 40.561C31.595 40.837 31.381 41.071 31.105 41.083C25.922 41.323 21.546 41.413 17.043 41.062C15.413 40.942 14.498 41.186 14.161 41.85C14.126 41.917 14.114 41.989 14.113 42.034C14.129 42.032 14.157 42.035 14.197 42.034C15.673 42.035 17.073 42.024 18.447 42.015C21.859 41.99 25.084 41.967 28.832 42.126L29.371 42.151C30.27 42.196 31.2 42.241 32.053 42.15C32.335 42.127 32.574 42.32 32.603 42.594C32.632 42.868 32.433 43.115 32.159 43.144C31.757 43.187 31.347 43.202 30.936 43.202Z" fill="#010101"/>
<path d="M46.5 34.8C46.48 34.98 46.44 35.16 46.4 35.34H29.83C29.76 35.02 29.7 34.67 29.63 34.28C29.56 33.86 29.5 33.4 29.71 33.03C29.92 32.66 30.3 32.47 30.67 32.53C35 32.92 39.43 33 43.75 32.61C44.5 32.54 45.28 32.48 45.87 32.95C46.4 33.37 46.57 34.13 46.5 34.8Z" fill="#F26322"/>
<path d="M29.938 35.836C32.679 36.069 35.415 36.104 38.162 35.988C40.861 35.875 43.602 36.144 46.287 35.875C46.921 35.812 46.928 34.811 46.287 34.875C43.602 35.144 40.862 34.875 38.162 34.988C35.414 35.103 32.679 35.068 29.938 34.836C29.296 34.781 29.3 35.782 29.938 35.836Z" fill="#010101"/>
<path d="M34.478 44.861C34.352 44.861 34.227 44.86 34.104 44.859C33.768 44.855 33.35 44.85 32.956 44.669C32.23 44.335 31.916 43.598 31.679 42.934C31.307 41.894 31.014 41.121 30.77 40.481C30.015 38.493 29.732 37.75 29.141 34.37C29.073 33.982 28.96 33.332 29.273 32.781C29.583 32.238 30.155 31.945 30.733 32.036C35.361 32.445 39.728 32.471 43.708 32.111C44.468 32.041 45.418 31.956 46.178 32.559C46.793 33.047 47.097 33.908 46.993 34.86C46.93 35.436 46.742 35.965 46.559 36.477C46.506 36.625 46.453 36.774 46.404 36.923C45.801 38.744 45.736 39.261 45.654 39.914C45.581 40.5 45.497 41.164 45.059 42.797C44.937 43.253 44.768 43.719 44.364 44.039C43.923 44.39 43.354 44.423 42.978 44.444C42.402 44.478 41.775 44.518 41.121 44.56C38.933 44.702 36.469 44.861 34.478 44.861ZM30.53 33.02C30.381 33.02 30.233 33.116 30.142 33.275C30.017 33.495 30.063 33.838 30.126 34.198C30.7 37.483 30.974 38.203 31.704 40.126C31.95 40.772 32.246 41.55 32.62 42.599C32.789 43.072 33 43.59 33.373 43.762C33.574 43.854 33.849 43.858 34.115 43.861C36.125 43.877 38.746 43.714 41.057 43.564C41.713 43.522 42.342 43.482 42.92 43.448C43.264 43.427 43.564 43.4 43.743 43.258C43.919 43.118 44.015 42.83 44.094 42.539C44.514 40.974 44.593 40.346 44.662 39.792C44.747 39.112 44.821 38.525 45.455 36.61C45.507 36.454 45.562 36.298 45.617 36.143C45.787 35.664 45.948 35.211 45.999 34.751C46.05 34.281 45.961 33.665 45.556 33.343C45.141 33.014 44.566 33.038 43.798 33.108C39.753 33.474 35.32 33.447 30.628 33.031C30.615 33.03 30.602 33.028 30.588 33.026C30.569 33.021 30.55 33.02 30.53 33.02Z" fill="#010101"/>
</svg>
