<svg width="320" height="252" viewBox="0 0 320 252" fill="none" xmlns="http://www.w3.org/2000/svg">
<path d="M98.6214 100.847C93.3987 100.847 92.0246 105.436 93.6367 109.95C95.3527 114.755 93.8534 120.339 93.8534 125.289C93.8534 127.564 95.002 128.968 96.6468 130.322C97.8486 131.312 100.339 133.859 101.872 134.199C105.666 135.042 107.727 139.237 108.133 142.893C108.98 150.509 111.901 158.216 114.419 165.408C116.916 172.543 119.865 179.839 123.979 186.239C125.809 189.085 126.392 191.212 129.373 193.391C131.937 195.264 134.377 197.405 137.464 198.592C140.551 199.78 145.612 199.433 147.675 199.676C153.268 200.334 159.047 201.41 164.676 201.41C167.48 201.41 176.683 198.56 178.855 196.699C181.027 194.837 189.218 184.296 192.516 177.883C195.813 171.471 196.301 169.622 197.884 166.54C199.465 163.461 200.708 160.286 202.315 157.197C204.678 152.653 207.424 147.951 210.358 143.76C211.257 142.475 211.167 138.816 212.362 136.128C213.557 133.441 216.16 133.658 218.69 132.393C221.029 131.224 221.568 130.837 222.591 128.251C223.44 126.103 223.32 122.663 222.687 120.449C221.673 116.9 224.226 113.311 223.361 109.757C222.734 107.175 223.415 103.232 220.424 102.244C218.633 101.652 216.33 102.34 215.656 103.014C214.856 103.813 212.501 108.546 211.073 107.261" stroke="black" stroke-width="3" stroke-linecap="round" stroke-linejoin="round"/>
<path d="M104.69 107.782C104.814 102.584 106.052 97.6755 107.724 92.7798C109.316 88.1189 110.264 83.0641 112.926 78.8369C116.474 73.2016 118.99 67.1046 123.28 61.9801C127.799 56.5832 135.446 51.8228 141.919 49.5302C144.446 48.6353 146.753 47.8146 149.384 47.3388C149.67 47.2872 155.419 46.1721 153.237 47.4351C151.128 48.6565 149.292 50.4884 147.891 52.4681C146.83 53.9682 144.829 56.2398 147.819 55.3337C150.894 54.4021 153.71 52.9847 156.657 51.7216C157.143 51.5133 159.283 50.054 158.102 50.9991C157.612 51.391 155.908 53.5049 156.32 54.226C156.882 55.2091 164.372 53.5848 165.398 53.3591C167.029 53.0003 168.647 52.6195 170.287 52.2995C171.311 52.0997 173.9 50.6607 173.321 51.5289C173.16 51.77 169.904 53.9463 171.732 54.0334C177.381 54.3024 183.322 53.3103 188.926 54.0574C191.528 54.4044 191.815 60.9301 191.815 62.7989C191.815 64.8859 191.806 68.6062 190.106 70.0232C189.413 70.6006 191.322 68.1638 192.008 67.8077C193.649 66.9559 195.499 66.6515 197.113 65.7368C199.145 64.5854 204.748 62.0328 206.576 64.1217C207.72 65.4299 206.083 65.7586 205.661 66.7947" stroke="black" stroke-width="3" stroke-linecap="round" stroke-linejoin="round"/>
<path d="M206.119 65.7368C204.86 70.5525 202.218 74.5177 202.218 79.6315C202.218 81.7273 201.651 84.818 202.483 86.7595C203.487 89.1012 205.216 90.9225 206.312 93.2133C207.952 96.6414 210.887 99.239 210.887 103.207C210.887 103.769 210.514 106.879 211.176 107.06C212.245 107.351 214.034 104.674 214.596 103.857C216.392 101.245 219.557 98.1817 219.557 94.7785C219.557 90.7026 220.857 87.1012 220.857 83.0751C220.857 78.8752 221.324 73.7441 219.966 69.7824C219.259 67.7192 217.438 64.3332 217.438 62.1246C217.438 61.9755 218.979 63.4182 219.147 63.5695C220.217 64.5319 221.145 65.5431 222.157 66.5555C222.859 67.257 224.414 67.9136 225.432 67.3743C226.032 67.0568 223.883 64.1357 223.602 63.5213C222.211 60.4707 219.468 58.7573 217.1 56.5378C216.302 55.7889 213.646 52.0902 213.97 52.155C217.932 52.9474 222.623 55.1247 225.962 57.3084C227.502 58.3153 225.16 55.9724 224.758 55.5264C223.308 53.9149 221.456 53.2079 219.749 51.9624C219.06 51.4594 216.176 48.8198 218.593 49.6987C220.242 50.2982 221.698 50.9991 223.458 50.9991C223.693 50.9991 220.833 49.5494 220.231 49.2653C218.152 48.2836 216.241 47.1503 214.211 45.9903C211.255 44.3012 210.3 42.2405 208.046 39.9218C206.771 38.6105 205.439 37.4211 204.386 35.9244C203.197 34.2352 202.781 34.6213 201.351 35.2983C200.334 35.7802 199.664 34.9611 198.751 34.9611" stroke="black" stroke-width="3" stroke-linecap="round" stroke-linejoin="round"/>
<path d="M198.701 34.311C197.703 32.8133 195.765 29.7964 195.042 28.1221C194.468 26.7921 193.937 25.3796 192.899 24.3414C190.921 22.3636 190.215 20.3725 187.384 19.2603C186.479 18.9044 183.397 16.3591 183.604 17.5987C183.881 19.2641 184.83 21.4777 185.53 23.0169C186.071 24.2066 183.602 22.7964 183.315 22.5594C181.885 21.3782 180.165 20.3643 178.426 19.6937C174.694 18.2541 171.184 16.6736 167.758 14.5885C166.726 13.9601 165.587 13.5009 164.724 12.638C163.809 11.7228 163.861 11.7223 164.507 13.0955C165.482 15.1673 166.049 17.2871 166.771 19.4529C167.031 20.234 167.182 21.0441 166 20.5607C164.081 19.7756 162.149 19.6478 160.173 19.1158C156.301 18.0735 152.799 16.794 149.433 14.5885C149.059 14.3439 145.105 11.7126 146.109 13.7216C147.233 15.969 148.924 17.727 150.203 19.8864C151.472 22.0276 142.771 21.5239 141.365 21.5239C137.664 21.5239 133.324 22.1552 129.686 21.4276C128.346 21.1595 130.521 21.3183 131.035 21.5239C132.79 22.226 134.67 22.8976 136.284 23.8838C138.802 25.4223 138.252 26.292 135.514 26.292C132.278 26.292 128.975 26.0619 125.785 26.6291C125.507 26.6785 123.409 26.5791 123.955 27.1589C124.697 27.9472 125.806 28.3358 126.58 29.1094C128.509 31.0386 126.547 30.4935 124.725 30.9637C122.502 31.5374 119.989 31.0497 117.694 31.5898C114.151 32.4234 117.999 32.8539 118.97 34.311C120.102 36.0087 120.835 37.6871 120.728 39.7292C120.637 41.4623 117.196 43.5763 115.936 44.5213C111.49 47.8559 108.127 51.2966 105.22 56.1043C102.395 60.7754 101.23 65.0674 100.259 70.4085C99.1948 76.2614 97.1497 87.6722 97.9229 94.3735C98.6962 101.075 102.805 107.148 104.69 107.776" stroke="black" stroke-width="3" stroke-linecap="round" stroke-linejoin="round"/>
<path d="M115.96 170.201C117.161 178.741 117.715 186.796 116.393 195.389C115.813 199.16 115.542 204.479 113.696 207.863C112.514 210.03 112.037 212.099 111.192 214.317C110.567 215.957 109.905 216.854 111.625 214.847" stroke="black" stroke-width="3" stroke-linecap="round" stroke-linejoin="round"/>
<path d="M193.983 174.102C191.956 181.702 192.22 190.631 193.742 198.327C194.375 201.528 195.358 204.754 196.342 207.863C196.696 208.98 197.45 210.43 197.45 211.62C197.45 212.528 198.317 216.399 198.317 213.547" stroke="black" stroke-width="3" stroke-linecap="round" stroke-linejoin="round"/>
<path d="M137.183 160.69C138.04 159.603 139.648 158.57 140.906 157.969C142.332 157.287 143.503 156.215 144.921 155.506C147.417 154.258 149.894 153.687 152.614 153.155C155.305 152.629 158.307 151.858 161.071 152.503C163.751 153.128 166.514 153.613 168.865 155.135C171.525 156.856 173.801 158.646 175.535 161.343C176.21 162.393 177.226 163.209 178.065 164.132" stroke="black" stroke-width="3" stroke-linecap="round" stroke-linejoin="round"/>
<path d="M135.564 161.703C143.96 161.703 152.35 161.5 160.757 161.5C163.006 161.5 165.151 161.471 167.37 161.905C169.435 162.309 171.551 162.324 173.533 163.075C174.558 163.463 176.255 163.813 177.064 164.537C177.366 164.807 179.31 165.567 178.481 164.739" stroke="black" stroke-width="3" stroke-linecap="round" stroke-linejoin="round"/>
<path d="M137.386 159.071C140.115 157.679 141.836 155.272 144.044 153.234C146.251 151.196 150.618 148.64 151.444 148.24C153.79 147.105 156.025 146.732 158.53 147.633C159.528 147.992 160.159 148.61 160.97 149.241C161.504 149.657 164.962 147.503 167.527 148.184C170.092 148.865 175.13 152.34 175.602 154.752C176.066 157.123 176.655 159.473 177.109 161.86C177.222 162.452 178.177 164.487 178.076 164.537" stroke="black" stroke-width="3" stroke-linecap="round" stroke-linejoin="round"/>
<path d="M153.784 104.614C155.395 106.83 154.983 112.943 154.369 115.509C153.755 118.074 152.313 122.484 151.647 123.34C151.256 123.842 150.503 123.34 149.735 123.846" stroke="black" stroke-width="3" stroke-linecap="round" stroke-linejoin="round"/>
<path d="M146.293 125.061C144.801 127.09 143.997 129.807 144.575 132.262C145.152 134.717 146.293 135.355 148.115 135.588" stroke="black" stroke-width="3" stroke-linecap="round" stroke-linejoin="round"/>
<path d="M163.298 105.626C163.298 110.569 162.368 115.661 163.343 120.54C164.319 125.418 168.66 125.828 169.979 126.883" stroke="black" stroke-width="3" stroke-linecap="round" stroke-linejoin="round"/>
<path d="M170.092 126.849C171.002 127.88 171.553 129.212 171.38 130.716C171.227 132.057 170.394 132.712 169.574 133.766" stroke="black" stroke-width="3" stroke-linecap="round" stroke-linejoin="round"/>
<path d="M153.592 133.676C152.649 135.155 149.739 134.495 149.472 133.518C149.205 132.542 151.551 130.407 152.558 131.539C153.079 132.125 153.305 132.958 153.592 133.676ZM153.592 133.676C153.946 134.559 154.531 135.076 155.212 135.689C156.013 136.41 159.636 136.654 160.577 135.97C161.221 135.501 161.859 134.251 162.084 133.518M162.084 133.518C162.483 132.217 162.766 131.062 163.906 130.716C164.953 130.397 166.396 130.309 166.335 131.899C166.314 132.434 165.058 133.437 164.679 133.676C164.3 133.914 162.466 133.518 162.084 133.518Z" stroke="black" stroke-width="3" stroke-linecap="round" stroke-linejoin="round"/>
<path d="M173.015 136.398C173.789 137.405 174.47 139.516 175.546 140.233C176.268 140.714 177.197 142.255 177.469 143.056C177.891 144.298 177.936 145.727 178.279 147.014C178.397 147.459 178.638 150.348 178.886 149.354" stroke="black" stroke-width="3" stroke-linecap="round" stroke-linejoin="round"/>
<path d="M177.222 93.2775C175.643 93.2775 174.117 93.48 172.813 93.48C172.813 93.2775 172.952 91.7967 172.566 90.4434C172.179 89.09 174.731 90.5073 176.3 90.8482C177.868 91.1891 183.478 90.6458 187.096 90.6458C190.604 90.6458 194.107 92.1238 197.601 92.4565C199.155 92.6045 201.155 92.9325 201.155 94.987C201.155 95.6628 200.026 94.9257 198.591 94.6496C197.155 94.3735 191.269 93.6812 189.616 93.5025C187.2 93.2414 185.159 92.8726 182.71 92.8726C180.879 92.8726 179.066 93.2775 177.222 93.2775Z" fill="black" stroke="black" stroke-width="3" stroke-linecap="round" stroke-linejoin="round"/>
<path d="M120.594 94.1998C118.469 94.815 116.909 96.4595 114.915 97.3264C114.497 97.1174 118.027 93.6824 118.027 93.6824C118.027 93.6824 121.281 91.5302 122.855 91.2082C125.239 90.7205 127.198 90.7651 132.461 90.7651C137.723 90.7651 142.747 91.4169 142.649 93.0751C142.632 93.3627 141.447 93.9172 141.187 94.0873C140.39 94.6083 138.631 94.2898 137.723 94.2898C133.965 94.2898 130.174 93.7289 126.409 93.6824C124.408 93.6577 122.533 93.6387 120.594 94.1998Z" fill="black" stroke="black" stroke-width="3" stroke-linecap="round" stroke-linejoin="round"/>
<path d="M143.662 111.497C142.643 111.075 141.785 110.554 140.872 109.968C139.96 109.381 139.678 109.323 138.758 108.461C137.838 107.599 136.229 106.213 134.732 105.739C133.234 105.265 131.172 105.199 130.008 105.323C128.844 105.447 124.471 106.639 122.203 108.067C119.935 109.495 120.72 109.238 121.191 109.473" stroke="black" stroke-width="3" stroke-linecap="round" stroke-linejoin="round"/>
<path d="M123.013 110.283C124.84 110.581 126.143 111.356 127.826 112.015C129.083 112.506 130.734 111.936 132.01 111.902C133.852 111.854 135.635 111.862 137.453 111.902C138.455 111.924 139.356 112.276 140.22 111.7" stroke="black" stroke-width="3" stroke-linecap="round" stroke-linejoin="round"/>
<path d="M128.636 110.598C127.602 109.379 127.332 107.953 128.079 106.745C128.793 105.591 130.711 105.329 131.688 105.199C133.218 104.995 134.741 105.852 135.766 107.134C136.459 107.999 135.834 109 135.249 109.585C134.117 110.717 133.558 111.256 131.945 111.385C130.855 111.472 129.499 111.614 128.636 110.598Z" fill="black" stroke="black" stroke-width="3" stroke-linecap="round" stroke-linejoin="round"/>
<path d="M172.206 110.08C173.949 108.735 175.657 107.321 177.357 105.93C178.945 104.631 180.697 103.231 182.834 103.006C185.176 102.76 187.406 102.221 189.728 102.995C191.11 103.455 192.374 104.064 193.721 104.603C194.386 104.869 196.203 105.829 195.486 105.829" stroke="black" stroke-width="3" stroke-linecap="round" stroke-linejoin="round"/>
<path d="M175.445 110.687C176.767 110.903 177.682 110.327 178.931 110.283C179.724 110.254 180.523 110.283 181.316 110.283C183.407 110.283 185.501 110.08 187.569 110.08C189.49 110.08 191.449 109.25 193.102 108.258C193.737 107.877 194.391 107.512 194.924 106.999C195.202 106.731 196.369 106.234 195.689 106.234" stroke="black" stroke-width="3" stroke-linecap="round" stroke-linejoin="round"/>
<path d="M181.001 108.753C179.711 107.463 179.657 105.847 180.708 104.614C181.488 103.7 183.277 103.707 183.632 103.652C184.375 103.538 184.944 103.73 185.668 104.119C186.333 104.477 187.56 105.673 187.906 106.346C188.531 107.561 187.393 108.746 186.489 109.405C185.511 110.119 184.793 110.08 183.632 110.08C182.652 110.08 181.691 109.444 181.001 108.753Z" fill="black" stroke="black" stroke-width="3" stroke-linecap="round" stroke-linejoin="round"/>
<path d="M120.178 106.841C122.152 106.795 123.934 105.462 125.802 104.862C127.669 104.261 130.607 104.589 131.762 104.614C133.362 104.65 136.743 106.239 137.791 107.448" stroke="black" stroke-width="3" stroke-linecap="round" stroke-linejoin="round"/>
<path d="M174.028 108.663C175.105 107.585 176.397 107.045 177.514 106.076C178.608 105.128 179.93 104.347 181.271 103.804C183.183 103.03 185.11 103.489 187.074 103.04C188.029 102.821 189.08 103.135 189.976 103.445C190.924 103.773 191.943 103.754 192.855 104.209C193.402 104.483 194.179 104.859 194.632 105.267C194.86 105.472 195.769 105.829 195.689 105.829" stroke="black" stroke-width="3" stroke-linecap="round" stroke-linejoin="round"/>
<path d="M213.706 117.166C214.384 122.083 212.773 126.887 212.694 131.786C212.664 133.638 212.121 135.598 211.682 137.41C211.422 138.479 211.329 140.23 210.669 141.054" stroke="black" stroke-width="3" stroke-linecap="round" stroke-linejoin="round"/>
<path d="M102.566 120.607C103.483 127.64 106.139 134.089 107.829 140.851" stroke="black" stroke-width="3" stroke-linecap="round" stroke-linejoin="round"/>
</svg>
