<svg width="320" height="252" viewBox="0 0 320 252" fill="none" xmlns="http://www.w3.org/2000/svg">
<path d="M111.502 104.447C114.862 97.0869 117.549 89.2668 117.549 80.9556C117.549 73.0898 120.253 66.2054 129.114 66.2054C133.529 66.2054 136.85 66.76 139.68 70.3027C141.89 73.0693 142.285 76.5851 146.444 76.5851C150.156 76.5851 153.93 74.3999 157.666 74.3999C161.398 74.3999 165.554 72.761 169.417 72.761C173.286 72.761 177.694 72.169 181.511 71.6381C185.128 71.1349 189.265 68.5078 192.982 70.5758C193.836 71.0511 194.415 74.3078 194.415 75.2194C194.415 76.9964 195.873 79.6285 196.379 81.3805C196.661 82.3558 196.931 83.8715 197.345 84.7797C198.095 86.4222 198.343 88.7032 198.343 90.5159C198.343 92.2171 199.85 93.7027 200.026 95.1594C200.337 97.7351 203.999 99.995 205.512 101.836C207.49 104.244 206.759 109.095 206.759 112.095V125.327V132.035C206.759 132.035 208.006 140.776 206.759 146.512C205.512 152.248 204.092 164.046 201.054 168.35C198.015 172.653 192.213 177.495 186.964 182.068C181.715 186.641 172.498 189.789 170.664 190.407C168.399 191.171 165.968 191.752 163.276 191.309C160.585 190.865 146.364 187.289 139.15 183.387C136.047 181.709 125.91 174.267 123.423 170.77C120.937 167.274 120.02 161.356 119.003 157.59C117.986 153.824 116.427 143.743 116.427 141.988V136.132C116.427 134.35 115.305 132.747 115.305 130.942C115.305 129.52 114.662 127.076 114.058 125.752C111.464 120.068 108.69 110.609 111.502 104.447Z" stroke="black" stroke-width="3" stroke-linecap="round" stroke-linejoin="round"/>
<path d="M111.939 119.743C106.593 118.6 104.084 118.022 104.084 124.113C104.084 127.204 107.892 128.221 109.134 130.942C110.57 134.089 111.222 136.952 111.97 140.229C112.228 141.361 115.843 146.01 116.427 144.873" stroke="black" stroke-width="3" stroke-linecap="round" stroke-linejoin="round"/>
<path d="M204.515 114.826C206.303 113.56 212.271 110.529 213.46 114.584C214.591 118.436 211.247 121.289 211.247 124.933C211.247 130.023 211.657 138.937 206.198 141.595" stroke="black" stroke-width="3" stroke-linecap="round" stroke-linejoin="round"/>
<path d="M110.817 57.4646C104.46 59.8798 100.399 65.2806 99.0031 71.3953C98.372 74.1609 98.4732 76.9558 98.4732 79.863C98.4732 82.8388 97.3511 84.8507 97.3511 87.7844C97.3511 93.3284 99.8418 98.3855 100.156 103.9C100.358 107.44 101.183 109.853 102.962 112.884C103.649 114.056 104.495 115.181 105.081 116.465C105.36 117.076 106.328 120.659 106.328 118.104" stroke="black" stroke-width="3" stroke-linecap="round" stroke-linejoin="round"/>
<path d="M113.622 53.6404C117.345 50.8945 120.851 46.8918 123.16 42.9572C125.384 39.1685 128.449 36.849 131.576 33.9735C135.212 30.63 138.483 28.6124 143.39 27.4179C145.777 26.8369 148.217 25.579 150.372 24.4132C152.6 23.2078 156.068 23.5261 158.538 22.7743C166.552 20.336 175.078 24.1345 182.072 27.5393C185.108 29.0172 188.398 31.9382 190.769 34.2467C192.21 35.6503 194.348 36.0934 195.818 37.5245C197.428 39.092 198.136 41.4201 199.746 42.9875C202.433 45.6038 204.376 49.2235 207.881 51.0303C211.281 52.783 215.813 56.4053 217.419 59.9229C218.27 61.7863 219.102 62.4991 219.102 64.6879C219.102 66.945 218.789 70.2743 217.294 72.0933C215.3 74.5209 214.423 78.8897 214.614 82.0482C214.692 83.3431 216.297 84.8072 216.297 86.1454C216.297 87.868 216.858 89.7422 216.858 91.6085C216.858 94.9945 212.931 97.7385 212.931 101.442C212.931 104.463 213.718 109.386 211.372 111.67C210.112 112.897 208.574 112.454 207.445 113.309C206.469 114.047 207.303 110.448 206.198 109.91" stroke="black" stroke-width="3" stroke-linecap="round" stroke-linejoin="round"/>
<path d="M125.081 119.09C129.764 116.596 132.803 116.125 136.671 116.596C140.539 117.067 148.55 121.169 145.788 121.438" stroke="black" stroke-width="3" stroke-linecap="round" stroke-linejoin="round"/>
<path d="M173.656 119.743C178.972 115.979 184.792 113.692 190.488 116.465" stroke="black" stroke-width="3" stroke-linecap="round" stroke-linejoin="round"/>
<path d="M178.676 120.199C182.06 120.929 184.991 120.904 187.517 120.199" stroke="black" stroke-width="3" stroke-linecap="round" stroke-linejoin="round"/>
<path d="M128.659 121.169C130.434 122.18 137.703 122.937 141.571 121.169" stroke="black" stroke-width="3" stroke-linecap="round" stroke-linejoin="round"/>
<path d="M136.625 120.716C136.096 121.681 133.655 121.282 133.392 119.915C133.409 119.617 133.486 119.336 133.605 119.084C133.656 118.788 133.814 118.479 134.121 118.182C136.126 116.243 137.56 119.007 136.625 120.716Z" fill="black"/>
<path d="M135.169 117.169C130.715 120.534 135.83 122.167 136.625 120.716C137.56 119.007 136.126 116.243 134.121 118.182C132.255 119.987 135.878 122.234 135.693 119.196C135.649 118.471 134.121 117.716 134.121 118.942C134.121 119.721 135.094 120.944 135.169 119.702C135.254 118.31 134.423 118.86 134.674 119.956C135.068 121.671 136.513 119.586 136.101 118.689C135.204 116.737 132.451 119.025 133.714 121.223C135.069 123.582 137.789 121.835 137.789 119.702C137.789 118.145 135.102 115.779 134.121 117.675" stroke="black" stroke-width="3" stroke-linecap="round" stroke-linejoin="round"/>
<path d="M185.247 119.102C184.719 120.067 182.278 119.668 182.014 118.301C182.032 118.003 182.109 117.722 182.227 117.47C182.278 117.174 182.437 116.865 182.744 116.568C184.749 114.629 186.182 117.393 185.247 119.102Z" fill="black"/>
<path d="M183.792 115.555C179.337 118.92 184.453 120.553 185.247 119.102C186.182 117.393 184.749 114.629 182.744 116.568C180.878 118.373 184.5 120.62 184.316 117.582C184.272 116.857 182.744 116.102 182.744 117.328C182.744 118.107 183.716 119.33 183.792 118.088C183.876 116.696 183.045 117.246 183.297 118.342C183.691 120.057 185.135 117.972 184.723 117.075C183.826 115.123 181.074 117.411 182.336 119.609C183.691 121.968 186.412 120.221 186.412 118.088C186.412 116.531 183.724 114.165 182.744 116.061" stroke="black" stroke-width="3" stroke-linecap="round" stroke-linejoin="round"/>
<path d="M163.557 115.373C163.557 119.362 164.679 123.248 164.679 127.118C164.679 128.6 165.488 133.594 166.643 134.493C168.368 135.837 172.322 140.618 172.322 142.257C172.322 143.896 171.493 145.216 170.388 145.485" stroke="black" stroke-width="3" stroke-linecap="round" stroke-linejoin="round"/>
<path d="M151.879 144.14C156.144 144.14 157.737 148.151 160.471 148.151C163.205 148.151 165.968 143.871 167.626 143.333" stroke="black" stroke-width="3" stroke-linecap="round" stroke-linejoin="round"/>
<path d="M148.563 139.298C147.385 140.812 146.629 141.988 146.629 143.602C146.629 145.216 148.563 147.099 149.945 147.099" stroke="black" stroke-width="3" stroke-linecap="round" stroke-linejoin="round"/>
<path d="M141.114 159.623C144.739 161.001 148.184 162.355 152.055 162.355C153.301 162.355 154.605 161.262 155.982 161.262C157.873 161.262 159.49 161.808 161.313 161.808C164.34 161.808 167.651 161.863 170.57 161.232C172.646 160.783 177.739 160.413 178.706 158.531" stroke="black" stroke-width="3" stroke-linecap="round" stroke-linejoin="round"/>
<path d="M147.785 162.238C147.785 162.238 155.746 167.543 162.13 167.767C164.825 167.767 167.949 166.579 170.05 164.987C170.566 164.596 173.78 161.359 173.487 161.074" stroke="black" stroke-width="3" stroke-linecap="round" stroke-linejoin="round"/>
<path d="M157.128 170.232C157.128 170.232 161.015 171.913 163.199 171.844C165.383 171.776 168.178 171.211 168.178 171.211" stroke="#B3B0B0" stroke-opacity="0.3" stroke-width="3" stroke-linecap="round" stroke-linejoin="round"/>
<path d="M145.597 161.301C146.784 161.148 149.385 160.593 150.666 160.222C151.947 159.85 152.941 159.502 155.096 159.046C157.251 158.591 161.561 159.297 161.561 159.297C161.561 159.297 164.049 158.514 165.04 158.371C166.032 158.228 169.085 158.762 171.126 158.948C173.166 159.134 174.397 159.34 176.172 159.34C177.359 159.34 180.922 159.34 179.734 159.34" stroke="black" stroke-width="3" stroke-linecap="round" stroke-linejoin="round"/>
<path d="M144.696 161.356C147.167 163.762 149.582 167.097 152.707 168.619C155.746 170.098 160.166 171.26 164.057 171.26C167.947 171.26 169.922 169.941 172.159 168.204C174.396 166.467 176.19 160.28 176.19 160.28" stroke="black" stroke-width="3" stroke-linecap="round" stroke-linejoin="round"/>
<path d="M135.232 181.445C136.569 184.659 136.918 190.06 134.485 192.955C134.053 193.47 130.578 197.697 130.152 196.868" stroke="black" stroke-width="3" stroke-linecap="round" stroke-linejoin="round"/>
<path d="M195.305 174.17C194.443 176.372 194.109 179.393 194.109 181.752C194.109 182.93 193.889 184.373 194.176 185.519C194.521 186.901 195.285 188.197 195.604 189.593C196.003 191.341 197.673 192.702 198.891 193.958C199.354 194.435 199.656 195.372 200.253 195.704C200.652 195.926 201.742 196.42 201.581 196.577" stroke="black" stroke-width="3" stroke-linecap="round" stroke-linejoin="round"/>
<path d="M91 212C96.5311 210.998 101.556 207.856 106.342 205.032C108.701 203.64 111.357 202.732 113.78 201.395C115.746 200.31 117.79 199.338 119.857 198.452C122.795 197.193 125.247 195.995 128.524 195.995C129.752 195.995 130.329 195.961 131.347 196.512C132.513 197.143 133.482 198.119 134.651 198.759C137.338 200.231 140.045 201.953 143.003 202.753C146.544 203.71 150.264 204.269 153.795 205.307C155.316 205.754 156.753 206.686 158.262 207.053C159.491 207.352 161.127 207.972 162.297 208.508C164.985 209.74 168.117 210.102 171.03 210.48C175.807 211.1 180.684 206.56 184.994 205.161C189.107 203.826 192.43 201.088 196.517 199.762C199.359 198.839 202.028 197.159 204.719 195.995C205.756 195.546 206.203 195.946 207.259 195.995C208.498 196.052 209.755 195.995 210.995 195.995C214.537 195.995 218.866 196.583 222.269 197.45C228.976 199.158 235.715 200.476 242.36 202.462C248.188 204.203 253.942 206.084 259.727 207.926C261.19 208.392 262.516 209.068 263.895 209.688C265.425 210.376 265.358 210.748 263.745 209.963" stroke="black" stroke-width="3" stroke-linecap="round" stroke-linejoin="round"/>
<path d="M141.976 108.72C144.256 109.237 147.742 109.237 149.186 110.255C150.039 110.856 132.9 109.608 130.045 109.721C127.19 109.835 124.461 110.272 123.683 111.151C123.353 111.522 122.106 110.44 122.281 109.885C122.467 109.299 124.102 108.367 124.674 108.08C126.902 106.963 129.258 106.982 132.19 107.058C134.067 107.107 139.673 108.198 141.976 108.72Z" fill="black" stroke="black" stroke-linecap="round" stroke-linejoin="round"/>
<path d="M179.603 106.614C176.971 107.998 169.968 109.03 169.715 109.745C169.418 110.584 173.671 109.942 174.757 109.942C175.844 109.942 181.585 109.009 184.872 108.574C188.159 108.139 192.03 108.781 192.03 108.781C192.03 108.781 194.497 109.258 194.497 108.346C194.497 107.435 188.209 104.928 186.418 104.928C183.999 104.928 181.66 105.533 179.603 106.614Z" fill="black" stroke="black" stroke-linecap="round" stroke-linejoin="round"/>
</svg>
